<svg xmlns="http://www.w3.org/2000/svg" xmlns:xlink="http://www.w3.org/1999/xlink" width="500" zoomAndPan="magnify" viewBox="0 0 375 172.499995" height="230" preserveAspectRatio="xMidYMid meet" version="1.0"><defs><g/><clipPath id="c602050b26"><path d="M 147.792969 0 L 227.355469 0 L 227.355469 72.792969 L 147.792969 72.792969 Z M 147.792969 0 " clip-rule="nonzero"/></clipPath></defs><g clip-path="url(#c602050b26)"><path fill="#d6a553" d="M 187.492188 1.792969 C 189.773438 0.648438 192.347656 0 195.0625 0 C 199.730469 0 203.972656 1.910156 207.046875 4.980469 C 209.945312 7.878906 211.804688 11.816406 212.007812 16.171875 C 215.957031 16.59375 219.511719 18.382812 222.183594 21.054688 C 225.257812 24.128906 227.164062 28.363281 227.167969 33.027344 L 227.167969 44.183594 C 227.167969 48.851562 225.257812 53.09375 222.183594 56.167969 C 221.546875 56.804688 220.859375 57.390625 220.128906 57.917969 C 219.992188 59.492188 218.667969 60.730469 217.058594 60.730469 C 215.355469 60.730469 213.976562 59.347656 213.976562 57.644531 C 213.976562 55.941406 215.355469 54.558594 217.058594 54.558594 C 217.472656 54.558594 217.863281 54.640625 218.222656 54.789062 C 218.710938 54.417969 219.171875 54.015625 219.601562 53.585938 C 222.015625 51.171875 223.515625 47.84375 223.515625 44.183594 L 223.515625 33.039062 C 223.515625 29.382812 222.015625 26.054688 219.601562 23.640625 C 217.597656 21.632812 214.960938 20.261719 212.027344 19.851562 L 212.027344 65.675781 C 212.027344 69.699219 208.746094 72.980469 204.722656 72.980469 L 170.265625 72.980469 C 166.242188 72.980469 162.960938 69.699219 162.960938 65.675781 L 162.960938 19.851562 C 160.027344 20.257812 157.390625 21.632812 155.386719 23.636719 C 152.972656 26.050781 151.472656 29.378906 151.472656 33.039062 L 151.472656 44.183594 C 151.472656 47.84375 152.972656 51.171875 155.386719 53.585938 C 155.816406 54.015625 156.277344 54.417969 156.761719 54.785156 C 157.121094 54.640625 157.515625 54.558594 157.929688 54.558594 C 159.632812 54.558594 161.011719 55.941406 161.011719 57.644531 C 161.011719 59.347656 159.632812 60.726562 157.929688 60.726562 C 156.316406 60.726562 154.996094 59.492188 154.855469 57.917969 C 154.125 57.390625 153.441406 56.800781 152.804688 56.164062 C 149.730469 53.089844 147.820312 48.851562 147.820312 44.183594 L 147.820312 33.027344 C 147.824219 28.363281 149.730469 24.125 152.804688 21.054688 C 155.472656 18.382812 159.03125 16.59375 162.980469 16.167969 C 163.179688 11.816406 165.042969 7.878906 167.941406 4.980469 C 171.015625 1.910156 175.257812 0 179.925781 0 C 182.640625 0 185.210938 0.648438 187.492188 1.792969 Z M 193.238281 44.183594 L 193.238281 16.964844 C 193.238281 13.304688 191.738281 9.976562 189.324219 7.566406 C 188.761719 7 188.148438 6.488281 187.492188 6.03125 C 186.839844 6.488281 186.226562 7 185.660156 7.566406 C 183.25 9.976562 181.75 13.304688 181.75 16.964844 L 181.75 44.183594 C 181.75 48.851562 179.84375 53.089844 176.769531 56.164062 C 174.746094 58.1875 172.222656 59.703125 169.402344 60.503906 L 169.402344 56.664062 C 171.214844 55.988281 172.84375 54.929688 174.1875 53.582031 C 176.597656 51.167969 178.097656 47.84375 178.097656 44.183594 L 178.097656 16.964844 C 178.097656 12.296875 180.003906 8.054688 183.078125 4.980469 C 183.332031 4.730469 183.589844 4.488281 183.859375 4.25 C 182.613281 3.863281 181.292969 3.652344 179.921875 3.652344 C 176.265625 3.652344 172.9375 5.148438 170.523438 7.566406 C 168.109375 9.976562 166.609375 13.308594 166.609375 16.964844 L 166.609375 66.113281 C 166.609375 67.882812 168.054688 69.328125 169.824219 69.328125 L 205.164062 69.328125 C 206.933594 69.328125 208.378906 67.882812 208.378906 66.113281 L 208.378906 16.964844 C 208.378906 13.304688 206.878906 9.976562 204.464844 7.566406 C 202.050781 5.148438 198.722656 3.652344 195.0625 3.652344 C 193.695312 3.652344 192.375 3.863281 191.128906 4.25 C 191.394531 4.488281 191.65625 4.730469 191.90625 4.980469 C 194.980469 8.054688 196.890625 12.296875 196.890625 16.964844 L 196.890625 44.183594 C 196.890625 47.84375 198.386719 51.167969 200.804688 53.582031 C 202.148438 54.929688 203.777344 55.988281 205.585938 56.664062 L 205.585938 60.503906 C 202.769531 59.703125 200.242188 58.1875 198.21875 56.164062 C 195.144531 53.089844 193.238281 48.851562 193.238281 44.183594 Z M 218.996094 6.6875 C 221.273438 6.6875 223.117188 8.53125 223.117188 10.808594 C 223.117188 13.085938 221.269531 14.929688 218.996094 14.929688 C 216.71875 14.929688 214.871094 13.085938 214.871094 10.808594 C 214.875 8.53125 216.71875 6.6875 218.996094 6.6875 Z M 155.992188 6.6875 C 158.269531 6.6875 160.117188 8.53125 160.117188 10.808594 C 160.117188 13.085938 158.269531 14.929688 155.992188 14.929688 C 153.714844 14.929688 151.871094 13.085938 151.871094 10.808594 C 151.871094 8.53125 153.714844 6.6875 155.992188 6.6875 Z M 155.992188 6.6875 " fill-opacity="1" fill-rule="evenodd"/></g><g fill="#d6a553" fill-opacity="1"><g transform="translate(41.969147, 122.858373)"><g><path d="M 15.265625 -0.53125 C 16.640625 -0.53125 18.050781 -0.597656 19.5 -0.734375 C 20.957031 -0.867188 22.222656 -1.097656 23.296875 -1.421875 C 24.460938 -1.753906 25.382812 -2.21875 26.0625 -2.8125 C 26.75 -3.40625 27.257812 -4.117188 27.59375 -4.953125 L 28.296875 -7.640625 L 28.875 -7.640625 L 27.453125 0 L 2.046875 0 L 2.046875 -0.53125 L 3.609375 -0.53125 C 4.804688 -0.53125 5.585938 -0.78125 5.953125 -1.28125 C 6.328125 -1.789062 6.515625 -2.347656 6.515625 -2.953125 L 6.515625 -29.328125 C 6.515625 -30.273438 6.296875 -30.910156 5.859375 -31.234375 C 5.429688 -31.566406 4.679688 -31.734375 3.609375 -31.734375 L 2.09375 -31.734375 L 2.09375 -32.28125 L 14.828125 -32.28125 L 14.828125 -31.734375 L 13.125 -31.734375 C 11.96875 -31.734375 11.207031 -31.5625 10.84375 -31.21875 C 10.488281 -30.882812 10.3125 -30.253906 10.3125 -29.328125 L 10.3125 -2.953125 C 10.3125 -2.535156 10.363281 -2.171875 10.46875 -1.859375 C 10.570312 -1.546875 10.796875 -1.289062 11.140625 -1.09375 C 11.484375 -0.894531 11.976562 -0.75 12.625 -0.65625 C 13.28125 -0.570312 14.160156 -0.53125 15.265625 -0.53125 Z M 15.265625 -0.53125 "/></g></g></g><g fill="#d6a553" fill-opacity="1"><g transform="translate(88.707159, 122.858373)"><g><path d="M 32.140625 -31.734375 C 31.867188 -31.285156 31.648438 -30.78125 31.484375 -30.21875 C 31.328125 -29.65625 31.1875 -28.976562 31.0625 -28.1875 C 30.945312 -27.394531 30.851562 -26.484375 30.78125 -25.453125 C 30.707031 -24.429688 30.65625 -23.222656 30.625 -21.828125 L 30.625 -14.109375 C 30.625 -12.023438 30.4375 -10.097656 30.0625 -8.328125 C 29.6875 -6.554688 29.046875 -5.019531 28.140625 -3.71875 C 27.234375 -2.425781 26.015625 -1.40625 24.484375 -0.65625 C 22.953125 0.0820312 21.039062 0.453125 18.75 0.453125 C 16.570312 0.453125 14.738281 0.226562 13.25 -0.21875 C 11.769531 -0.664062 10.546875 -1.238281 9.578125 -1.9375 C 8.609375 -2.632812 7.867188 -3.421875 7.359375 -4.296875 C 6.859375 -5.179688 6.488281 -6.054688 6.25 -6.921875 C 6.007812 -7.785156 5.875 -8.601562 5.84375 -9.375 C 5.8125 -10.144531 5.796875 -10.769531 5.796875 -11.25 L 5.796875 -29.328125 C 5.796875 -30.191406 5.554688 -30.804688 5.078125 -31.171875 C 4.609375 -31.546875 3.851562 -31.734375 2.8125 -31.734375 L 1.34375 -31.734375 L 1.34375 -32.28125 L 14.0625 -32.28125 L 14.0625 -31.734375 L 12.40625 -31.734375 C 11.539062 -31.734375 10.851562 -31.546875 10.34375 -31.171875 C 9.84375 -30.804688 9.59375 -30.191406 9.59375 -29.328125 L 9.59375 -10.484375 C 9.59375 -8.347656 9.9375 -6.613281 10.625 -5.28125 C 11.3125 -3.957031 12.128906 -2.925781 13.078125 -2.1875 C 14.035156 -1.445312 15.039062 -0.941406 16.09375 -0.671875 C 17.144531 -0.398438 18.046875 -0.265625 18.796875 -0.265625 C 21.054688 -0.265625 22.90625 -0.628906 24.34375 -1.359375 C 25.789062 -2.085938 26.929688 -3.078125 27.765625 -4.328125 C 28.597656 -5.578125 29.175781 -7.039062 29.5 -8.71875 C 29.832031 -10.40625 30 -12.203125 30 -14.109375 L 30 -22.234375 C 30 -25.023438 29.816406 -27.21875 29.453125 -28.8125 C 29.097656 -30.40625 28.789062 -31.378906 28.53125 -31.734375 L 25.796875 -31.734375 L 25.796875 -32.28125 L 34.78125 -32.28125 L 34.78125 -31.734375 Z M 32.140625 -31.734375 "/></g></g></g><g fill="#d6a553" fill-opacity="1"><g transform="translate(142.676117, 122.858373)"><g><path d="M 20.984375 0 L 20.984375 -0.53125 L 22.71875 -0.53125 C 22.925781 -0.53125 23.15625 -0.535156 23.40625 -0.546875 C 23.664062 -0.566406 23.898438 -0.613281 24.109375 -0.6875 C 24.316406 -0.757812 24.484375 -0.863281 24.609375 -1 C 24.742188 -1.132812 24.8125 -1.335938 24.8125 -1.609375 C 24.8125 -1.785156 24.726562 -2.019531 24.5625 -2.3125 C 24.40625 -2.613281 24.253906 -2.882812 24.109375 -3.125 L 16.296875 -14.828125 C 16.296875 -14.828125 16.210938 -14.726562 16.046875 -14.53125 C 15.878906 -14.332031 15.675781 -14.097656 15.4375 -13.828125 C 15.207031 -13.566406 14.960938 -13.28125 14.703125 -12.96875 C 14.453125 -12.65625 14.238281 -12.378906 14.0625 -12.140625 C 11.800781 -9.347656 10.050781 -7.085938 8.8125 -5.359375 C 7.582031 -3.628906 6.96875 -2.4375 6.96875 -1.78125 C 6.96875 -1.519531 7.023438 -1.304688 7.140625 -1.140625 C 7.265625 -0.972656 7.398438 -0.84375 7.546875 -0.75 C 7.691406 -0.664062 7.851562 -0.609375 8.03125 -0.578125 C 8.207031 -0.546875 8.34375 -0.53125 8.4375 -0.53125 L 10.625 -0.53125 L 10.625 0 L 0.671875 0 L 0.671875 -0.53125 L 2.359375 -0.53125 C 2.546875 -0.65625 2.835938 -0.875 3.234375 -1.1875 C 3.640625 -1.5 4.15625 -1.941406 4.78125 -2.515625 C 5.40625 -3.097656 6.140625 -3.835938 6.984375 -4.734375 C 7.835938 -5.628906 8.8125 -6.710938 9.90625 -7.984375 C 10.738281 -8.972656 11.644531 -10.078125 12.625 -11.296875 C 13.613281 -12.515625 14.703125 -13.882812 15.890625 -15.40625 L 7.640625 -27.71875 C 7.160156 -28.40625 6.726562 -28.992188 6.34375 -29.484375 C 5.957031 -29.972656 5.539062 -30.378906 5.09375 -30.703125 C 4.644531 -31.035156 4.160156 -31.28125 3.640625 -31.4375 C 3.117188 -31.601562 2.484375 -31.703125 1.734375 -31.734375 L 1.734375 -32.28125 L 14.375 -32.28125 L 14.375 -31.734375 L 11.875 -31.734375 C 11.570312 -31.734375 11.296875 -31.664062 11.046875 -31.53125 C 10.796875 -31.40625 10.671875 -31.132812 10.671875 -30.71875 C 10.671875 -30.476562 10.75 -30.203125 10.90625 -29.890625 C 11.070312 -29.578125 11.257812 -29.269531 11.46875 -28.96875 L 18.4375 -18.34375 C 18.738281 -18.726562 19.207031 -19.351562 19.84375 -20.21875 C 20.476562 -21.082031 21.160156 -22.019531 21.890625 -23.03125 C 22.617188 -24.039062 23.3125 -25.019531 23.96875 -25.96875 C 24.625 -26.925781 25.128906 -27.6875 25.484375 -28.25 C 25.867188 -28.90625 26.128906 -29.394531 26.265625 -29.71875 C 26.398438 -30.050781 26.46875 -30.335938 26.46875 -30.578125 C 26.46875 -31.085938 26.265625 -31.40625 25.859375 -31.53125 C 25.460938 -31.664062 24.9375 -31.734375 24.28125 -31.734375 L 22.5 -31.734375 L 22.5 -32.28125 L 32.671875 -32.28125 L 32.671875 -31.734375 L 31.34375 -31.734375 C 30.09375 -31.265625 28.898438 -30.445312 27.765625 -29.28125 C 26.628906 -28.125 25.585938 -26.921875 24.640625 -25.671875 L 18.796875 -17.8125 L 27.40625 -5.046875 C 27.707031 -4.597656 28.066406 -4.101562 28.484375 -3.5625 C 28.898438 -3.03125 29.367188 -2.539062 29.890625 -2.09375 C 30.410156 -1.644531 30.984375 -1.269531 31.609375 -0.96875 C 32.234375 -0.675781 32.914062 -0.53125 33.65625 -0.53125 L 34.1875 -0.53125 L 34.1875 0 Z M 20.984375 0 "/></g></g></g><g fill="#d6a553" fill-opacity="1"><g transform="translate(195.395288, 122.858373)"><g><path d="M 32.140625 -31.734375 C 31.867188 -31.285156 31.648438 -30.78125 31.484375 -30.21875 C 31.328125 -29.65625 31.1875 -28.976562 31.0625 -28.1875 C 30.945312 -27.394531 30.851562 -26.484375 30.78125 -25.453125 C 30.707031 -24.429688 30.65625 -23.222656 30.625 -21.828125 L 30.625 -14.109375 C 30.625 -12.023438 30.4375 -10.097656 30.0625 -8.328125 C 29.6875 -6.554688 29.046875 -5.019531 28.140625 -3.71875 C 27.234375 -2.425781 26.015625 -1.40625 24.484375 -0.65625 C 22.953125 0.0820312 21.039062 0.453125 18.75 0.453125 C 16.570312 0.453125 14.738281 0.226562 13.25 -0.21875 C 11.769531 -0.664062 10.546875 -1.238281 9.578125 -1.9375 C 8.609375 -2.632812 7.867188 -3.421875 7.359375 -4.296875 C 6.859375 -5.179688 6.488281 -6.054688 6.25 -6.921875 C 6.007812 -7.785156 5.875 -8.601562 5.84375 -9.375 C 5.8125 -10.144531 5.796875 -10.769531 5.796875 -11.25 L 5.796875 -29.328125 C 5.796875 -30.191406 5.554688 -30.804688 5.078125 -31.171875 C 4.609375 -31.546875 3.851562 -31.734375 2.8125 -31.734375 L 1.34375 -31.734375 L 1.34375 -32.28125 L 14.0625 -32.28125 L 14.0625 -31.734375 L 12.40625 -31.734375 C 11.539062 -31.734375 10.851562 -31.546875 10.34375 -31.171875 C 9.84375 -30.804688 9.59375 -30.191406 9.59375 -29.328125 L 9.59375 -10.484375 C 9.59375 -8.347656 9.9375 -6.613281 10.625 -5.28125 C 11.3125 -3.957031 12.128906 -2.925781 13.078125 -2.1875 C 14.035156 -1.445312 15.039062 -0.941406 16.09375 -0.671875 C 17.144531 -0.398438 18.046875 -0.265625 18.796875 -0.265625 C 21.054688 -0.265625 22.90625 -0.628906 24.34375 -1.359375 C 25.789062 -2.085938 26.929688 -3.078125 27.765625 -4.328125 C 28.597656 -5.578125 29.175781 -7.039062 29.5 -8.71875 C 29.832031 -10.40625 30 -12.203125 30 -14.109375 L 30 -22.234375 C 30 -25.023438 29.816406 -27.21875 29.453125 -28.8125 C 29.097656 -30.40625 28.789062 -31.378906 28.53125 -31.734375 L 25.796875 -31.734375 L 25.796875 -32.28125 L 34.78125 -32.28125 L 34.78125 -31.734375 Z M 32.140625 -31.734375 "/></g></g></g><g fill="#d6a553" fill-opacity="1"><g transform="translate(249.364238, 122.858373)"><g><path d="M 30.890625 -0.453125 C 31.191406 -0.453125 31.453125 -0.539062 31.671875 -0.71875 C 31.890625 -0.894531 32.066406 -1.113281 32.203125 -1.375 C 32.335938 -1.644531 32.441406 -1.9375 32.515625 -2.25 C 32.585938 -2.5625 32.625 -2.867188 32.625 -3.171875 L 33.171875 -3.171875 C 33.171875 -2.835938 33.128906 -2.445312 33.046875 -2 C 32.972656 -1.5625 32.800781 -1.144531 32.53125 -0.75 C 32.269531 -0.363281 31.882812 -0.0390625 31.375 0.21875 C 30.875 0.488281 30.191406 0.625 29.328125 0.625 C 28.378906 0.625 27.523438 0.398438 26.765625 -0.046875 C 26.003906 -0.492188 25.296875 -1.125 24.640625 -1.9375 C 23.984375 -2.757812 23.359375 -3.75 22.765625 -4.90625 C 22.171875 -6.070312 21.578125 -7.351562 20.984375 -8.75 C 20.472656 -9.90625 19.859375 -10.984375 19.140625 -11.984375 C 18.429688 -12.984375 17.625 -13.832031 16.71875 -14.53125 C 15.8125 -15.226562 14.820312 -15.765625 13.75 -16.140625 C 12.675781 -16.515625 11.515625 -16.671875 10.265625 -16.609375 L 10.265625 -2.953125 C 10.265625 -2.117188 10.476562 -1.503906 10.90625 -1.109375 C 11.34375 -0.722656 12.066406 -0.53125 13.078125 -0.53125 L 14.734375 -0.53125 L 14.734375 0 L 2.046875 0 L 2.046875 -0.53125 L 3.578125 -0.53125 C 4.640625 -0.53125 5.382812 -0.722656 5.8125 -1.109375 C 6.25 -1.503906 6.46875 -2.117188 6.46875 -2.953125 L 6.46875 -29.328125 C 6.46875 -30.398438 6.242188 -31.066406 5.796875 -31.328125 C 5.359375 -31.597656 4.617188 -31.734375 3.578125 -31.734375 L 2.046875 -31.734375 L 2.046875 -32.28125 L 7.09375 -32.28125 C 8.613281 -32.25 10.222656 -32.320312 11.921875 -32.5 C 13.617188 -32.675781 15.210938 -32.765625 16.703125 -32.765625 C 19.285156 -32.765625 21.375 -32.507812 22.96875 -32 C 24.5625 -31.5 25.800781 -30.851562 26.6875 -30.0625 C 27.582031 -29.269531 28.175781 -28.390625 28.46875 -27.421875 C 28.769531 -26.460938 28.921875 -25.535156 28.921875 -24.640625 C 28.921875 -23.242188 28.59375 -22.007812 27.9375 -20.9375 C 27.289062 -19.863281 26.40625 -18.960938 25.28125 -18.234375 C 24.164062 -17.503906 22.859375 -16.945312 21.359375 -16.5625 C 19.859375 -16.175781 18.257812 -15.984375 16.5625 -15.984375 C 19 -15.210938 20.960938 -14.125 22.453125 -12.71875 C 23.941406 -11.320312 25.117188 -9.835938 25.984375 -8.265625 C 26.429688 -7.484375 26.867188 -6.625 27.296875 -5.6875 C 27.722656 -4.75 28.101562 -3.910156 28.4375 -3.171875 C 28.550781 -2.898438 28.679688 -2.609375 28.828125 -2.296875 C 28.984375 -1.984375 29.164062 -1.6875 29.375 -1.40625 C 29.582031 -1.125 29.804688 -0.894531 30.046875 -0.71875 C 30.285156 -0.539062 30.566406 -0.453125 30.890625 -0.453125 Z M 24.78125 -24.421875 C 24.78125 -27.035156 24.003906 -28.988281 22.453125 -30.28125 C 20.910156 -31.582031 18.828125 -32.234375 16.203125 -32.234375 C 15.285156 -32.234375 14.296875 -32.132812 13.234375 -31.9375 C 12.179688 -31.75 11.191406 -31.445312 10.265625 -31.03125 L 10.265625 -17.140625 L 12.640625 -16.921875 C 13.234375 -16.859375 13.84375 -16.796875 14.46875 -16.734375 C 15.09375 -16.679688 15.703125 -16.65625 16.296875 -16.65625 C 17.578125 -16.65625 18.738281 -16.847656 19.78125 -17.234375 C 20.820312 -17.617188 21.710938 -18.148438 22.453125 -18.828125 C 23.191406 -19.515625 23.765625 -20.332031 24.171875 -21.28125 C 24.578125 -22.238281 24.78125 -23.285156 24.78125 -24.421875 Z M 24.78125 -24.421875 "/></g></g></g><g fill="#d6a553" fill-opacity="1"><g transform="translate(300.610426, 122.858373)"><g><path d="M 31.03125 -31.734375 C 30.425781 -31.441406 29.796875 -30.984375 29.140625 -30.359375 C 28.492188 -29.734375 27.828125 -28.8125 27.140625 -27.59375 L 22.859375 -20.484375 L 18.53125 -13.34375 L 18.53125 -2.953125 C 18.53125 -2.117188 18.75 -1.503906 19.1875 -1.109375 C 19.632812 -0.722656 20.394531 -0.53125 21.46875 -0.53125 L 22.984375 -0.53125 L 22.984375 0 L 10.3125 0 L 10.3125 -0.53125 L 11.828125 -0.53125 C 12.929688 -0.53125 13.691406 -0.738281 14.109375 -1.15625 C 14.523438 -1.570312 14.734375 -2.171875 14.734375 -2.953125 L 14.734375 -12.984375 C 13.148438 -15.609375 11.5625 -18.222656 9.96875 -20.828125 C 8.382812 -23.429688 6.800781 -26.039062 5.21875 -28.65625 C 5.039062 -28.957031 4.828125 -29.285156 4.578125 -29.640625 C 4.328125 -29.992188 4.003906 -30.3125 3.609375 -30.59375 C 3.222656 -30.882812 2.738281 -31.132812 2.15625 -31.34375 C 1.582031 -31.550781 0.863281 -31.679688 0 -31.734375 L 0 -32.28125 L 12.359375 -32.28125 L 12.359375 -31.734375 L 10.578125 -31.734375 C 9.710938 -31.734375 9.179688 -31.492188 8.984375 -31.015625 C 8.796875 -30.546875 8.910156 -29.96875 9.328125 -29.28125 L 18.265625 -14.109375 L 22.234375 -20.765625 C 22.890625 -21.859375 23.46875 -22.828125 23.96875 -23.671875 C 24.476562 -24.523438 24.894531 -25.296875 25.21875 -25.984375 C 25.726562 -26.960938 26.125 -27.800781 26.40625 -28.5 C 26.6875 -29.195312 26.828125 -29.800781 26.828125 -30.3125 C 26.828125 -31.257812 26.128906 -31.734375 24.734375 -31.734375 L 23.4375 -31.734375 L 23.4375 -32.28125 L 32.40625 -32.28125 L 32.40625 -31.734375 Z M 31.03125 -31.734375 "/></g></g></g><g fill="#d6a553" fill-opacity="1"><g transform="translate(82.514534, 67.367907)"><g><path d="M 9.75 -11.75 L 9.890625 -9.296875 L 9.703125 -9.296875 L 9.515625 -10.640625 C 9.398438 -10.785156 9.207031 -10.914062 8.9375 -11.03125 C 8.675781 -11.144531 8.363281 -11.238281 8 -11.3125 C 7.644531 -11.394531 7.253906 -11.453125 6.828125 -11.484375 C 6.410156 -11.523438 5.988281 -11.546875 5.5625 -11.546875 C 5.175781 -11.546875 4.867188 -11.535156 4.640625 -11.515625 C 4.410156 -11.492188 4.226562 -11.453125 4.09375 -11.390625 C 3.96875 -11.328125 3.878906 -11.234375 3.828125 -11.109375 C 3.773438 -10.992188 3.75 -10.84375 3.75 -10.65625 L 3.75 -6.25 L 4.6875 -6.25 C 5.46875 -6.25 6.070312 -6.285156 6.5 -6.359375 C 6.9375 -6.429688 7.253906 -6.519531 7.453125 -6.625 C 7.648438 -6.726562 7.765625 -6.835938 7.796875 -6.953125 C 7.828125 -7.078125 7.84375 -7.191406 7.84375 -7.296875 L 7.84375 -7.671875 L 8.046875 -7.671875 L 8.046875 -4.640625 L 7.84375 -4.640625 L 7.84375 -5.046875 C 7.84375 -5.160156 7.828125 -5.273438 7.796875 -5.390625 C 7.765625 -5.515625 7.648438 -5.625 7.453125 -5.71875 C 7.253906 -5.8125 6.9375 -5.890625 6.5 -5.953125 C 6.070312 -6.023438 5.46875 -6.0625 4.6875 -6.0625 L 3.75 -6.0625 L 3.75 -1.078125 C 3.75 -0.878906 3.773438 -0.722656 3.828125 -0.609375 C 3.890625 -0.492188 3.96875 -0.40625 4.0625 -0.34375 C 4.15625 -0.289062 4.265625 -0.25 4.390625 -0.21875 C 4.515625 -0.195312 4.648438 -0.1875 4.796875 -0.1875 C 5.128906 -0.1875 5.472656 -0.195312 5.828125 -0.21875 C 6.191406 -0.238281 6.535156 -0.257812 6.859375 -0.28125 C 7.191406 -0.3125 7.5 -0.34375 7.78125 -0.375 C 8.070312 -0.414062 8.316406 -0.460938 8.515625 -0.515625 C 8.921875 -0.640625 9.253906 -0.804688 9.515625 -1.015625 C 9.773438 -1.234375 9.960938 -1.484375 10.078125 -1.765625 L 10.25 -2.5 L 10.453125 -2.5 L 9.984375 0 L 0.75 0 L 0.75 -0.1875 L 1.3125 -0.1875 C 1.75 -0.1875 2.035156 -0.25 2.171875 -0.375 C 2.304688 -0.5 2.375 -0.734375 2.375 -1.078125 L 2.375 -10.671875 C 2.375 -11.066406 2.269531 -11.3125 2.0625 -11.40625 C 1.863281 -11.5 1.613281 -11.546875 1.3125 -11.546875 L 0.75 -11.546875 L 0.75 -11.75 Z M 9.75 -11.75 "/></g></g></g><g fill="#d6a553" fill-opacity="1"><g transform="translate(96.732823, 67.367907)"><g><path d="M 8.75 -2.9375 C 8.75 -2.519531 8.660156 -2.117188 8.484375 -1.734375 C 8.316406 -1.359375 8.070312 -1.023438 7.75 -0.734375 C 7.425781 -0.441406 7.019531 -0.207031 6.53125 -0.03125 C 6.050781 0.144531 5.5 0.234375 4.875 0.234375 C 4.757812 0.234375 4.582031 0.222656 4.34375 0.203125 C 4.113281 0.191406 3.832031 0.160156 3.5 0.109375 C 3.175781 0.0546875 2.8125 -0.0234375 2.40625 -0.140625 C 2.007812 -0.265625 1.585938 -0.441406 1.140625 -0.671875 C 1.140625 -0.546875 1.140625 -0.425781 1.140625 -0.3125 C 1.148438 -0.207031 1.15625 -0.101562 1.15625 0 L 0.953125 0 L 0.71875 -3.15625 L 0.90625 -3.15625 L 0.984375 -2.453125 C 1.128906 -2.140625 1.328125 -1.835938 1.578125 -1.546875 C 1.835938 -1.253906 2.132812 -0.988281 2.46875 -0.75 C 2.800781 -0.507812 3.164062 -0.316406 3.5625 -0.171875 C 3.96875 -0.0351562 4.398438 0.03125 4.859375 0.03125 C 5.347656 0.03125 5.765625 -0.03125 6.109375 -0.15625 C 6.453125 -0.28125 6.726562 -0.445312 6.9375 -0.65625 C 7.15625 -0.863281 7.3125 -1.101562 7.40625 -1.375 C 7.507812 -1.644531 7.5625 -1.925781 7.5625 -2.21875 C 7.5625 -2.582031 7.472656 -2.921875 7.296875 -3.234375 C 7.128906 -3.554688 6.90625 -3.851562 6.625 -4.125 C 6.34375 -4.40625 6.015625 -4.664062 5.640625 -4.90625 C 5.273438 -5.144531 4.890625 -5.367188 4.484375 -5.578125 C 4.035156 -5.816406 3.609375 -6.054688 3.203125 -6.296875 C 2.804688 -6.535156 2.453125 -6.800781 2.140625 -7.09375 C 1.835938 -7.382812 1.59375 -7.703125 1.40625 -8.046875 C 1.226562 -8.390625 1.140625 -8.785156 1.140625 -9.234375 C 1.140625 -9.585938 1.195312 -9.929688 1.3125 -10.265625 C 1.425781 -10.609375 1.617188 -10.90625 1.890625 -11.15625 C 2.171875 -11.414062 2.535156 -11.625 2.984375 -11.78125 C 3.441406 -11.9375 4.015625 -12.015625 4.703125 -12.015625 C 5.347656 -12.015625 5.929688 -11.929688 6.453125 -11.765625 C 6.984375 -11.597656 7.453125 -11.40625 7.859375 -11.1875 L 7.859375 -11.75 L 8.0625 -11.75 L 8.21875 -8.90625 L 8.03125 -8.90625 L 7.984375 -9.515625 C 7.910156 -9.765625 7.796875 -10.023438 7.640625 -10.296875 C 7.492188 -10.566406 7.289062 -10.8125 7.03125 -11.03125 C 6.78125 -11.257812 6.46875 -11.445312 6.09375 -11.59375 C 5.726562 -11.738281 5.28125 -11.8125 4.75 -11.8125 C 4.238281 -11.8125 3.820312 -11.757812 3.5 -11.65625 C 3.1875 -11.550781 2.941406 -11.414062 2.765625 -11.25 C 2.585938 -11.082031 2.46875 -10.890625 2.40625 -10.671875 C 2.34375 -10.453125 2.3125 -10.234375 2.3125 -10.015625 C 2.3125 -9.617188 2.390625 -9.265625 2.546875 -8.953125 C 2.710938 -8.648438 2.929688 -8.367188 3.203125 -8.109375 C 3.484375 -7.859375 3.800781 -7.625 4.15625 -7.40625 C 4.519531 -7.195312 4.898438 -6.992188 5.296875 -6.796875 C 5.722656 -6.566406 6.140625 -6.328125 6.546875 -6.078125 C 6.960938 -5.828125 7.332031 -5.550781 7.65625 -5.25 C 7.976562 -4.945312 8.238281 -4.601562 8.4375 -4.21875 C 8.644531 -3.84375 8.75 -3.414062 8.75 -2.9375 Z M 8.75 -2.9375 "/></g></g></g><g fill="#d6a553" fill-opacity="1"><g transform="translate(109.765186, 67.367907)"><g><path d="M 10.5 -11.75 L 10.671875 -9.125 L 10.484375 -9.125 L 10.328125 -10.390625 C 10.054688 -10.847656 9.632812 -11.15625 9.0625 -11.3125 C 8.488281 -11.46875 7.8125 -11.546875 7.03125 -11.546875 C 6.832031 -11.546875 6.671875 -11.53125 6.546875 -11.5 C 6.421875 -11.46875 6.320312 -11.425781 6.25 -11.375 C 6.1875 -11.332031 6.144531 -11.273438 6.125 -11.203125 C 6.101562 -11.140625 6.09375 -11.078125 6.09375 -11.015625 L 6.09375 -1.078125 C 6.09375 -0.921875 6.101562 -0.785156 6.125 -0.671875 C 6.144531 -0.554688 6.191406 -0.460938 6.265625 -0.390625 C 6.347656 -0.328125 6.460938 -0.273438 6.609375 -0.234375 C 6.753906 -0.203125 6.945312 -0.1875 7.1875 -0.1875 L 7.71875 -0.1875 L 7.71875 0 L 3.09375 0 L 3.09375 -0.1875 L 3.65625 -0.1875 C 4.09375 -0.1875 4.378906 -0.25 4.515625 -0.375 C 4.648438 -0.5 4.71875 -0.734375 4.71875 -1.078125 L 4.71875 -11 C 4.71875 -11.144531 4.664062 -11.269531 4.5625 -11.375 C 4.457031 -11.488281 4.195312 -11.546875 3.78125 -11.546875 C 3.382812 -11.546875 3.015625 -11.53125 2.671875 -11.5 C 2.335938 -11.476562 2.03125 -11.425781 1.75 -11.34375 C 1.476562 -11.257812 1.238281 -11.140625 1.03125 -10.984375 C 0.820312 -10.828125 0.648438 -10.628906 0.515625 -10.390625 L 0.515625 -10.40625 L 0.359375 -9.125 L 0.15625 -9.125 L 0.3125 -11.75 Z M 10.5 -11.75 "/></g></g></g><g fill="#d6a553" fill-opacity="1"><g transform="translate(124.048455, 67.367907)"><g><path d="M 11.34375 -6.15625 C 11.34375 -6.488281 11.316406 -6.851562 11.265625 -7.25 C 11.210938 -7.65625 11.113281 -8.0625 10.96875 -8.46875 C 10.820312 -8.875 10.628906 -9.265625 10.390625 -9.640625 C 10.160156 -10.023438 9.863281 -10.363281 9.5 -10.65625 C 9.144531 -10.945312 8.71875 -11.179688 8.21875 -11.359375 C 7.726562 -11.546875 7.15625 -11.640625 6.5 -11.640625 C 6.082031 -11.640625 5.644531 -11.613281 5.1875 -11.5625 C 4.738281 -11.507812 4.257812 -11.375 3.75 -11.15625 L 3.75 -0.65625 C 4 -0.507812 4.351562 -0.378906 4.8125 -0.265625 C 5.269531 -0.160156 5.816406 -0.109375 6.453125 -0.109375 C 7.304688 -0.109375 8.039062 -0.269531 8.65625 -0.59375 C 9.28125 -0.925781 9.789062 -1.367188 10.1875 -1.921875 C 10.59375 -2.472656 10.882812 -3.113281 11.0625 -3.84375 C 11.25 -4.570312 11.34375 -5.34375 11.34375 -6.15625 Z M 2.375 -10.671875 C 2.375 -11.023438 2.285156 -11.257812 2.109375 -11.375 C 1.941406 -11.488281 1.671875 -11.546875 1.296875 -11.546875 L 0.75 -11.546875 L 0.75 -11.75 L 3.265625 -11.75 C 3.492188 -11.75 3.742188 -11.753906 4.015625 -11.765625 C 4.296875 -11.773438 4.582031 -11.785156 4.875 -11.796875 C 5.164062 -11.804688 5.453125 -11.8125 5.734375 -11.8125 C 6.015625 -11.820312 6.269531 -11.828125 6.5 -11.828125 C 7.476562 -11.828125 8.3125 -11.722656 9 -11.515625 C 9.6875 -11.316406 10.265625 -11.050781 10.734375 -10.71875 C 11.203125 -10.382812 11.578125 -10.007812 11.859375 -9.59375 C 12.140625 -9.1875 12.351562 -8.773438 12.5 -8.359375 C 12.644531 -7.953125 12.738281 -7.566406 12.78125 -7.203125 C 12.832031 -6.835938 12.859375 -6.539062 12.859375 -6.3125 C 12.859375 -5.957031 12.828125 -5.550781 12.765625 -5.09375 C 12.703125 -4.644531 12.585938 -4.179688 12.421875 -3.703125 C 12.265625 -3.234375 12.039062 -2.769531 11.75 -2.3125 C 11.457031 -1.863281 11.070312 -1.457031 10.59375 -1.09375 C 10.125 -0.738281 9.550781 -0.453125 8.875 -0.234375 C 8.207031 -0.0234375 7.414062 0.078125 6.5 0.078125 C 6.28125 0.078125 6.023438 0.0703125 5.734375 0.0625 C 5.453125 0.0507812 5.171875 0.0390625 4.890625 0.03125 C 4.640625 0.0195312 4.394531 0.0078125 4.15625 0 C 3.925781 0 3.726562 0 3.5625 0 L 0.75 0 L 0.75 -0.1875 L 1.296875 -0.1875 C 1.742188 -0.1875 2.035156 -0.25 2.171875 -0.375 C 2.304688 -0.5 2.375 -0.734375 2.375 -1.078125 Z M 2.375 -10.671875 "/></g></g></g><g fill="#d6a553" fill-opacity="1"><g transform="translate(239.989118, 67.367907)"><g><path d="M 2.171875 0 L 2.171875 -0.1875 L 2.53125 -0.1875 C 2.644531 -0.1875 2.765625 -0.195312 2.890625 -0.21875 C 3.015625 -0.238281 3.125 -0.273438 3.21875 -0.328125 C 3.3125 -0.390625 3.390625 -0.476562 3.453125 -0.59375 C 3.523438 -0.71875 3.5625 -0.882812 3.5625 -1.09375 L 3.5625 -9.765625 C 3.195312 -9.398438 2.859375 -9.085938 2.546875 -8.828125 C 2.234375 -8.566406 1.890625 -8.304688 1.515625 -8.046875 L 1.390625 -8.203125 C 2.015625 -8.691406 2.601562 -9.253906 3.15625 -9.890625 C 3.71875 -10.523438 4.15625 -11.191406 4.46875 -11.890625 L 4.8125 -11.890625 L 4.8125 -1.09375 C 4.8125 -0.90625 4.835938 -0.753906 4.890625 -0.640625 C 4.953125 -0.523438 5.03125 -0.4375 5.125 -0.375 C 5.226562 -0.3125 5.34375 -0.265625 5.46875 -0.234375 C 5.601562 -0.203125 5.734375 -0.1875 5.859375 -0.1875 L 6.1875 -0.1875 L 6.1875 0 Z M 2.171875 0 "/></g></g></g><g fill="#d6a553" fill-opacity="1"><g transform="translate(252.014256, 67.367907)"><g><path d="M 0.53125 -8.0625 C 0.53125 -8.613281 0.613281 -9.125 0.78125 -9.59375 C 0.957031 -10.070312 1.195312 -10.488281 1.5 -10.84375 C 1.8125 -11.207031 2.191406 -11.492188 2.640625 -11.703125 C 3.085938 -11.910156 3.59375 -12.015625 4.15625 -12.015625 C 4.757812 -12.015625 5.273438 -11.921875 5.703125 -11.734375 C 6.140625 -11.554688 6.503906 -11.316406 6.796875 -11.015625 C 7.085938 -10.722656 7.3125 -10.382812 7.46875 -10 C 7.632812 -9.625 7.757812 -9.238281 7.84375 -8.84375 C 7.9375 -8.445312 7.992188 -8.054688 8.015625 -7.671875 C 8.035156 -7.285156 8.046875 -6.945312 8.046875 -6.65625 C 8.046875 -5.8125 7.945312 -4.976562 7.75 -4.15625 C 7.5625 -3.332031 7.273438 -2.59375 6.890625 -1.9375 C 6.503906 -1.289062 6.007812 -0.765625 5.40625 -0.359375 C 4.8125 0.0351562 4.109375 0.234375 3.296875 0.234375 C 2.523438 0.234375 1.945312 0.0976562 1.5625 -0.171875 C 1.1875 -0.453125 1 -0.785156 1 -1.171875 C 1 -1.453125 1.070312 -1.65625 1.21875 -1.78125 C 1.375 -1.90625 1.550781 -1.96875 1.75 -1.96875 C 1.96875 -1.96875 2.148438 -1.910156 2.296875 -1.796875 C 2.453125 -1.691406 2.53125 -1.492188 2.53125 -1.203125 C 2.53125 -1.117188 2.515625 -1.007812 2.484375 -0.875 C 2.460938 -0.75 2.453125 -0.644531 2.453125 -0.5625 C 2.453125 -0.382812 2.53125 -0.238281 2.6875 -0.125 C 2.84375 -0.0195312 3.046875 0.03125 3.296875 0.03125 C 3.828125 0.03125 4.296875 -0.09375 4.703125 -0.34375 C 5.117188 -0.59375 5.472656 -0.953125 5.765625 -1.421875 C 6.054688 -1.890625 6.28125 -2.460938 6.4375 -3.140625 C 6.59375 -3.816406 6.6875 -4.582031 6.71875 -5.4375 C 6.226562 -5.082031 5.742188 -4.835938 5.265625 -4.703125 C 4.796875 -4.578125 4.335938 -4.515625 3.890625 -4.515625 C 3.421875 -4.515625 2.984375 -4.585938 2.578125 -4.734375 C 2.171875 -4.878906 1.816406 -5.097656 1.515625 -5.390625 C 1.210938 -5.679688 0.972656 -6.050781 0.796875 -6.5 C 0.617188 -6.945312 0.53125 -7.46875 0.53125 -8.0625 Z M 1.90625 -8.125 C 1.90625 -7.425781 1.988281 -6.863281 2.15625 -6.4375 C 2.320312 -6.019531 2.53125 -5.695312 2.78125 -5.46875 C 3.039062 -5.25 3.320312 -5.097656 3.625 -5.015625 C 3.925781 -4.941406 4.210938 -4.90625 4.484375 -4.90625 C 4.859375 -4.90625 5.234375 -4.976562 5.609375 -5.125 C 5.992188 -5.269531 6.363281 -5.46875 6.71875 -5.71875 C 6.75 -6.0625 6.75 -6.394531 6.71875 -6.71875 C 6.695312 -7.050781 6.679688 -7.375 6.671875 -7.6875 C 6.640625 -8.300781 6.5625 -8.859375 6.4375 -9.359375 C 6.320312 -9.867188 6.160156 -10.304688 5.953125 -10.671875 C 5.742188 -11.035156 5.488281 -11.316406 5.1875 -11.515625 C 4.894531 -11.710938 4.550781 -11.8125 4.15625 -11.8125 C 3.632812 -11.8125 3.222656 -11.679688 2.921875 -11.421875 C 2.628906 -11.160156 2.40625 -10.835938 2.25 -10.453125 C 2.101562 -10.078125 2.007812 -9.675781 1.96875 -9.25 C 1.925781 -8.820312 1.90625 -8.445312 1.90625 -8.125 Z M 1.90625 -8.125 "/></g></g></g><g fill="#d6a553" fill-opacity="1"><g transform="translate(264.039394, 67.367907)"><g><path d="M 0.53125 -8.0625 C 0.53125 -8.613281 0.613281 -9.125 0.78125 -9.59375 C 0.957031 -10.070312 1.195312 -10.488281 1.5 -10.84375 C 1.8125 -11.207031 2.191406 -11.492188 2.640625 -11.703125 C 3.085938 -11.910156 3.59375 -12.015625 4.15625 -12.015625 C 4.757812 -12.015625 5.273438 -11.921875 5.703125 -11.734375 C 6.140625 -11.554688 6.503906 -11.316406 6.796875 -11.015625 C 7.085938 -10.722656 7.3125 -10.382812 7.46875 -10 C 7.632812 -9.625 7.757812 -9.238281 7.84375 -8.84375 C 7.9375 -8.445312 7.992188 -8.054688 8.015625 -7.671875 C 8.035156 -7.285156 8.046875 -6.945312 8.046875 -6.65625 C 8.046875 -5.8125 7.945312 -4.976562 7.75 -4.15625 C 7.5625 -3.332031 7.273438 -2.59375 6.890625 -1.9375 C 6.503906 -1.289062 6.007812 -0.765625 5.40625 -0.359375 C 4.8125 0.0351562 4.109375 0.234375 3.296875 0.234375 C 2.523438 0.234375 1.945312 0.0976562 1.5625 -0.171875 C 1.1875 -0.453125 1 -0.785156 1 -1.171875 C 1 -1.453125 1.070312 -1.65625 1.21875 -1.78125 C 1.375 -1.90625 1.550781 -1.96875 1.75 -1.96875 C 1.96875 -1.96875 2.148438 -1.910156 2.296875 -1.796875 C 2.453125 -1.691406 2.53125 -1.492188 2.53125 -1.203125 C 2.53125 -1.117188 2.515625 -1.007812 2.484375 -0.875 C 2.460938 -0.75 2.453125 -0.644531 2.453125 -0.5625 C 2.453125 -0.382812 2.53125 -0.238281 2.6875 -0.125 C 2.84375 -0.0195312 3.046875 0.03125 3.296875 0.03125 C 3.828125 0.03125 4.296875 -0.09375 4.703125 -0.34375 C 5.117188 -0.59375 5.472656 -0.953125 5.765625 -1.421875 C 6.054688 -1.890625 6.28125 -2.460938 6.4375 -3.140625 C 6.59375 -3.816406 6.6875 -4.582031 6.71875 -5.4375 C 6.226562 -5.082031 5.742188 -4.835938 5.265625 -4.703125 C 4.796875 -4.578125 4.335938 -4.515625 3.890625 -4.515625 C 3.421875 -4.515625 2.984375 -4.585938 2.578125 -4.734375 C 2.171875 -4.878906 1.816406 -5.097656 1.515625 -5.390625 C 1.210938 -5.679688 0.972656 -6.050781 0.796875 -6.5 C 0.617188 -6.945312 0.53125 -7.46875 0.53125 -8.0625 Z M 1.90625 -8.125 C 1.90625 -7.425781 1.988281 -6.863281 2.15625 -6.4375 C 2.320312 -6.019531 2.53125 -5.695312 2.78125 -5.46875 C 3.039062 -5.25 3.320312 -5.097656 3.625 -5.015625 C 3.925781 -4.941406 4.210938 -4.90625 4.484375 -4.90625 C 4.859375 -4.90625 5.234375 -4.976562 5.609375 -5.125 C 5.992188 -5.269531 6.363281 -5.46875 6.71875 -5.71875 C 6.75 -6.0625 6.75 -6.394531 6.71875 -6.71875 C 6.695312 -7.050781 6.679688 -7.375 6.671875 -7.6875 C 6.640625 -8.300781 6.5625 -8.859375 6.4375 -9.359375 C 6.320312 -9.867188 6.160156 -10.304688 5.953125 -10.671875 C 5.742188 -11.035156 5.488281 -11.316406 5.1875 -11.515625 C 4.894531 -11.710938 4.550781 -11.8125 4.15625 -11.8125 C 3.632812 -11.8125 3.222656 -11.679688 2.921875 -11.421875 C 2.628906 -11.160156 2.40625 -10.835938 2.25 -10.453125 C 2.101562 -10.078125 2.007812 -9.675781 1.96875 -9.25 C 1.925781 -8.820312 1.90625 -8.445312 1.90625 -8.125 Z M 1.90625 -8.125 "/></g></g></g><g fill="#d6a553" fill-opacity="1"><g transform="translate(276.064533, 67.367907)"><g><path d="M 0.53125 -8.0625 C 0.53125 -8.613281 0.613281 -9.125 0.78125 -9.59375 C 0.957031 -10.070312 1.195312 -10.488281 1.5 -10.84375 C 1.8125 -11.207031 2.191406 -11.492188 2.640625 -11.703125 C 3.085938 -11.910156 3.59375 -12.015625 4.15625 -12.015625 C 4.757812 -12.015625 5.273438 -11.921875 5.703125 -11.734375 C 6.140625 -11.554688 6.503906 -11.316406 6.796875 -11.015625 C 7.085938 -10.722656 7.3125 -10.382812 7.46875 -10 C 7.632812 -9.625 7.757812 -9.238281 7.84375 -8.84375 C 7.9375 -8.445312 7.992188 -8.054688 8.015625 -7.671875 C 8.035156 -7.285156 8.046875 -6.945312 8.046875 -6.65625 C 8.046875 -5.8125 7.945312 -4.976562 7.75 -4.15625 C 7.5625 -3.332031 7.273438 -2.59375 6.890625 -1.9375 C 6.503906 -1.289062 6.007812 -0.765625 5.40625 -0.359375 C 4.8125 0.0351562 4.109375 0.234375 3.296875 0.234375 C 2.523438 0.234375 1.945312 0.0976562 1.5625 -0.171875 C 1.1875 -0.453125 1 -0.785156 1 -1.171875 C 1 -1.453125 1.070312 -1.65625 1.21875 -1.78125 C 1.375 -1.90625 1.550781 -1.96875 1.75 -1.96875 C 1.96875 -1.96875 2.148438 -1.910156 2.296875 -1.796875 C 2.453125 -1.691406 2.53125 -1.492188 2.53125 -1.203125 C 2.53125 -1.117188 2.515625 -1.007812 2.484375 -0.875 C 2.460938 -0.75 2.453125 -0.644531 2.453125 -0.5625 C 2.453125 -0.382812 2.53125 -0.238281 2.6875 -0.125 C 2.84375 -0.0195312 3.046875 0.03125 3.296875 0.03125 C 3.828125 0.03125 4.296875 -0.09375 4.703125 -0.34375 C 5.117188 -0.59375 5.472656 -0.953125 5.765625 -1.421875 C 6.054688 -1.890625 6.28125 -2.460938 6.4375 -3.140625 C 6.59375 -3.816406 6.6875 -4.582031 6.71875 -5.4375 C 6.226562 -5.082031 5.742188 -4.835938 5.265625 -4.703125 C 4.796875 -4.578125 4.335938 -4.515625 3.890625 -4.515625 C 3.421875 -4.515625 2.984375 -4.585938 2.578125 -4.734375 C 2.171875 -4.878906 1.816406 -5.097656 1.515625 -5.390625 C 1.210938 -5.679688 0.972656 -6.050781 0.796875 -6.5 C 0.617188 -6.945312 0.53125 -7.46875 0.53125 -8.0625 Z M 1.90625 -8.125 C 1.90625 -7.425781 1.988281 -6.863281 2.15625 -6.4375 C 2.320312 -6.019531 2.53125 -5.695312 2.78125 -5.46875 C 3.039062 -5.25 3.320312 -5.097656 3.625 -5.015625 C 3.925781 -4.941406 4.210938 -4.90625 4.484375 -4.90625 C 4.859375 -4.90625 5.234375 -4.976562 5.609375 -5.125 C 5.992188 -5.269531 6.363281 -5.46875 6.71875 -5.71875 C 6.75 -6.0625 6.75 -6.394531 6.71875 -6.71875 C 6.695312 -7.050781 6.679688 -7.375 6.671875 -7.6875 C 6.640625 -8.300781 6.5625 -8.859375 6.4375 -9.359375 C 6.320312 -9.867188 6.160156 -10.304688 5.953125 -10.671875 C 5.742188 -11.035156 5.488281 -11.316406 5.1875 -11.515625 C 4.894531 -11.710938 4.550781 -11.8125 4.15625 -11.8125 C 3.632812 -11.8125 3.222656 -11.679688 2.921875 -11.421875 C 2.628906 -11.160156 2.40625 -10.835938 2.25 -10.453125 C 2.101562 -10.078125 2.007812 -9.675781 1.96875 -9.25 C 1.925781 -8.820312 1.90625 -8.445312 1.90625 -8.125 Z M 1.90625 -8.125 "/></g></g></g><g fill="#d6a553" fill-opacity="1"><g transform="translate(73.80989, 157.135863)"><g><path d="M 38.875 -24.234375 C 38.875 -24.128906 38.765625 -24.082031 38.546875 -24.09375 C 38.335938 -24.113281 38.035156 -24.0625 37.640625 -23.9375 C 37.335938 -23.832031 36.945312 -23.660156 36.46875 -23.421875 C 36 -23.191406 35.539062 -22.9375 35.09375 -22.65625 C 34.644531 -22.382812 34.296875 -22.148438 34.046875 -21.953125 C 34.441406 -21.472656 34.78125 -20.894531 35.0625 -20.21875 C 35.351562 -19.550781 35.5 -18.828125 35.5 -18.046875 C 35.5 -17.578125 35.425781 -17.085938 35.28125 -16.578125 C 35.132812 -16.066406 34.882812 -15.570312 34.53125 -15.09375 C 33.9375 -14.238281 33.179688 -13.535156 32.265625 -12.984375 C 31.359375 -12.441406 30.425781 -12.023438 29.46875 -11.734375 C 28.519531 -11.453125 27.648438 -11.257812 26.859375 -11.15625 C 27.734375 -10.632812 28.410156 -9.960938 28.890625 -9.140625 C 29.378906 -8.316406 29.625 -7.429688 29.625 -6.484375 C 29.625 -6.003906 29.554688 -5.515625 29.421875 -5.015625 C 29.285156 -4.515625 29.066406 -4.015625 28.765625 -3.515625 C 28.066406 -2.367188 27.0625 -1.394531 25.75 -0.59375 C 24.4375 0.195312 22.914062 0.789062 21.1875 1.1875 C 19.46875 1.59375 17.660156 1.796875 15.765625 1.796875 C 13.972656 1.796875 12.390625 1.703125 11.015625 1.515625 C 9.640625 1.328125 8.253906 1.070312 6.859375 0.75 C 6.484375 0.675781 6.125 0.585938 5.78125 0.484375 C 5.445312 0.390625 5.117188 0.328125 4.796875 0.296875 C 5.390625 2.347656 6.4375 3.878906 7.9375 4.890625 C 9.4375 5.898438 11.25 6.40625 13.375 6.40625 C 14.375 6.40625 15.289062 6.265625 16.125 5.984375 C 16.957031 5.710938 17.648438 5.390625 18.203125 5.015625 C 18.328125 4.921875 18.457031 4.828125 18.59375 4.734375 C 18.726562 4.648438 18.8125 4.632812 18.84375 4.6875 C 18.9375 4.757812 18.941406 4.859375 18.859375 4.984375 C 18.773438 5.109375 18.671875 5.21875 18.546875 5.3125 C 17.941406 5.769531 17.195312 6.148438 16.3125 6.453125 C 15.425781 6.765625 14.394531 6.921875 13.21875 6.921875 C 10.875 6.921875 8.914062 6.34375 7.34375 5.1875 C 5.769531 4.03125 4.71875 2.4375 4.1875 0.40625 C 3.789062 0.507812 3.253906 0.609375 2.578125 0.703125 C 1.910156 0.804688 1.335938 0.859375 0.859375 0.859375 C 0.460938 0.859375 0.125 0.8125 -0.15625 0.71875 C -0.445312 0.632812 -0.609375 0.484375 -0.640625 0.265625 C -0.640625 0.015625 -0.492188 -0.1875 -0.203125 -0.34375 C 0.078125 -0.507812 0.421875 -0.632812 0.828125 -0.71875 C 1.242188 -0.8125 1.640625 -0.859375 2.015625 -0.859375 C 2.347656 -0.859375 2.6875 -0.84375 3.03125 -0.8125 C 3.382812 -0.789062 3.6875 -0.757812 3.9375 -0.71875 C 3.90625 -0.988281 3.867188 -1.316406 3.828125 -1.703125 C 3.796875 -2.085938 3.78125 -2.59375 3.78125 -3.21875 C 3.78125 -4.820312 4.03125 -6.515625 4.53125 -8.296875 C 5.03125 -10.078125 5.757812 -11.816406 6.71875 -13.515625 C 7.6875 -15.210938 8.84375 -16.722656 10.1875 -18.046875 C 12.3125 -20.148438 14.789062 -21.769531 17.625 -22.90625 C 20.457031 -24.039062 23.457031 -24.609375 26.625 -24.609375 C 28.25 -24.609375 29.660156 -24.382812 30.859375 -23.9375 C 32.054688 -23.488281 32.984375 -22.972656 33.640625 -22.390625 C 34.085938 -22.722656 34.679688 -23.082031 35.421875 -23.46875 C 36.171875 -23.851562 36.820312 -24.117188 37.375 -24.265625 C 37.601562 -24.335938 37.796875 -24.382812 37.953125 -24.40625 C 38.117188 -24.4375 38.265625 -24.453125 38.390625 -24.453125 C 38.710938 -24.453125 38.875 -24.378906 38.875 -24.234375 Z M 33.1875 -22.09375 C 32.65625 -22.59375 31.828125 -23.039062 30.703125 -23.4375 C 29.585938 -23.84375 28.253906 -24.046875 26.703125 -24.046875 C 24.554688 -24.046875 22.550781 -23.738281 20.6875 -23.125 C 18.832031 -22.507812 17.125 -21.695312 15.5625 -20.6875 C 14 -19.675781 12.59375 -18.5625 11.34375 -17.34375 C 9.84375 -15.894531 8.582031 -14.34375 7.5625 -12.6875 C 6.539062 -11.039062 5.757812 -9.394531 5.21875 -7.75 C 4.6875 -6.101562 4.421875 -4.554688 4.421875 -3.109375 C 4.421875 -2.554688 4.429688 -2.070312 4.453125 -1.65625 C 4.484375 -1.25 4.535156 -0.894531 4.609375 -0.59375 C 4.828125 -0.519531 5.140625 -0.484375 5.546875 -0.484375 C 6.960938 -0.484375 8.453125 -0.84375 10.015625 -1.5625 C 11.578125 -2.289062 13.285156 -3.441406 15.140625 -5.015625 C 17.003906 -6.585938 19.070312 -8.632812 21.34375 -11.15625 C 23.320312 -13.382812 25.328125 -15.476562 27.359375 -17.4375 C 29.390625 -19.394531 31.332031 -20.945312 33.1875 -22.09375 Z M 33.640625 -21.609375 C 32.429688 -20.660156 31.296875 -19.625 30.234375 -18.5 C 29.179688 -17.375 28.203125 -16.253906 27.296875 -15.140625 C 26.398438 -14.035156 25.566406 -13.019531 24.796875 -12.09375 C 25.171875 -12.164062 25.679688 -11.976562 26.328125 -11.53125 C 27.328125 -11.632812 28.425781 -11.957031 29.625 -12.5 C 30.820312 -13.050781 31.957031 -14.078125 33.03125 -15.578125 C 33.53125 -16.273438 33.875 -16.9375 34.0625 -17.5625 C 34.25 -18.1875 34.34375 -18.738281 34.34375 -19.21875 C 34.34375 -19.863281 34.253906 -20.382812 34.078125 -20.78125 C 33.898438 -21.1875 33.753906 -21.460938 33.640625 -21.609375 Z M 26.890625 -4.046875 C 27.265625 -4.617188 27.539062 -5.191406 27.71875 -5.765625 C 27.894531 -6.335938 27.984375 -6.898438 27.984375 -7.453125 C 28.003906 -8.273438 27.828125 -9.023438 27.453125 -9.703125 C 27.078125 -10.378906 26.53125 -10.863281 25.8125 -11.15625 C 25.707031 -11.113281 25.566406 -11.09375 25.390625 -11.09375 C 25.171875 -11.09375 24.957031 -11.144531 24.75 -11.25 C 24.550781 -11.363281 24.453125 -11.519531 24.453125 -11.71875 C 24.078125 -11.195312 23.570312 -10.578125 22.9375 -9.859375 C 22.300781 -9.148438 21.632812 -8.445312 20.9375 -7.75 C 20.238281 -7.050781 19.5625 -6.425781 18.90625 -5.875 C 17.1875 -4.425781 15.550781 -3.296875 14 -2.484375 C 12.457031 -1.671875 11.015625 -1.082031 9.671875 -0.71875 C 8.335938 -0.363281 7.097656 -0.125 5.953125 0 C 7.097656 0.226562 8.488281 0.484375 10.125 0.765625 C 11.757812 1.054688 13.640625 1.203125 15.765625 1.203125 C 18.109375 1.203125 20.257812 0.78125 22.21875 -0.0625 C 24.1875 -0.914062 25.742188 -2.242188 26.890625 -4.046875 Z M 26.890625 -4.046875 "/></g></g></g><g fill="#d6a553" fill-opacity="1"><g transform="translate(105.377125, 157.135863)"><g><path d="M 14.375 -10.9375 C 13.351562 -9.988281 12.285156 -8.945312 11.171875 -7.8125 C 10.066406 -6.675781 8.851562 -5.34375 7.53125 -3.8125 C 6.332031 -2.445312 4.9375 -0.9375 3.34375 0.71875 C 1.757812 2.382812 0.109375 3.894531 -1.609375 5.25 C -3.984375 7.070312 -6.367188 8.441406 -8.765625 9.359375 C -11.160156 10.285156 -13.394531 10.75 -15.46875 10.75 C -16.644531 10.75 -17.753906 10.570312 -18.796875 10.21875 C -19.847656 9.875 -20.722656 9.367188 -21.421875 8.703125 C -22.117188 8.046875 -22.566406 7.242188 -22.765625 6.296875 C -22.890625 5.691406 -22.828125 5.363281 -22.578125 5.3125 C -22.484375 5.269531 -22.414062 5.320312 -22.375 5.46875 C -22.34375 5.613281 -22.3125 5.765625 -22.28125 5.921875 C -22.101562 6.816406 -21.675781 7.578125 -21 8.203125 C -20.332031 8.828125 -19.515625 9.300781 -18.546875 9.625 C -17.585938 9.945312 -16.613281 10.109375 -15.625 10.109375 C -14.09375 10.109375 -12.601562 9.851562 -11.15625 9.34375 C -9.707031 8.832031 -8.316406 8.164062 -6.984375 7.34375 C -5.648438 6.519531 -4.429688 5.671875 -3.328125 4.796875 C -2.578125 4.191406 -1.773438 3.507812 -0.921875 2.75 C -0.078125 1.988281 0.753906 1.207031 1.578125 0.40625 C 2.398438 -0.382812 3.144531 -1.128906 3.8125 -1.828125 C 4.488281 -2.535156 5.03125 -3.125 5.4375 -3.59375 C 5.476562 -3.644531 5.488281 -3.679688 5.46875 -3.703125 C 5.445312 -3.734375 5.410156 -3.722656 5.359375 -3.671875 C 4.984375 -3.347656 4.570312 -2.984375 4.125 -2.578125 C 3.675781 -2.179688 3.375 -1.921875 3.21875 -1.796875 C 2.570312 -1.296875 1.882812 -0.828125 1.15625 -0.390625 C 0.4375 0.046875 -0.171875 0.265625 -0.671875 0.265625 C -1.148438 0.265625 -1.484375 0.160156 -1.671875 -0.046875 C -1.859375 -0.265625 -1.953125 -0.535156 -1.953125 -0.859375 C -1.953125 -1.484375 -1.703125 -2.203125 -1.203125 -3.015625 C -0.703125 -3.828125 -0.0234375 -4.695312 0.828125 -5.625 C 1.328125 -6.144531 1.925781 -6.707031 2.625 -7.3125 C 3.320312 -7.925781 4.023438 -8.5 4.734375 -9.03125 C 5.453125 -9.570312 6.054688 -9.984375 6.546875 -10.265625 C 6.828125 -10.441406 7.222656 -10.566406 7.734375 -10.640625 C 8.242188 -10.710938 8.625 -10.738281 8.875 -10.71875 C 7.78125 -9.8125 6.703125 -8.878906 5.640625 -7.921875 C 4.578125 -6.960938 3.640625 -6.0625 2.828125 -5.21875 C 2.015625 -4.382812 1.382812 -3.691406 0.9375 -3.140625 C 0.488281 -2.597656 0.109375 -2.109375 -0.203125 -1.671875 C -0.515625 -1.234375 -0.671875 -0.898438 -0.671875 -0.671875 C -0.671875 -0.453125 -0.5625 -0.34375 -0.34375 -0.34375 C 0.0078125 -0.34375 0.507812 -0.550781 1.15625 -0.96875 C 1.8125 -1.394531 2.410156 -1.804688 2.953125 -2.203125 C 3.285156 -2.453125 3.695312 -2.800781 4.1875 -3.25 C 4.6875 -3.707031 5.203125 -4.1875 5.734375 -4.6875 C 6.273438 -5.1875 6.75 -5.625 7.15625 -6 C 7.675781 -6.519531 8.242188 -7.070312 8.859375 -7.65625 C 9.472656 -8.25 10.082031 -8.804688 10.6875 -9.328125 C 11.300781 -9.847656 11.859375 -10.257812 12.359375 -10.5625 C 12.554688 -10.6875 12.878906 -10.785156 13.328125 -10.859375 C 13.773438 -10.929688 14.125 -10.957031 14.375 -10.9375 Z M 14.375 -10.9375 "/></g></g></g><g fill="#d6a553" fill-opacity="1"><g transform="translate(116.536117, 157.135863)"><g/></g></g><g fill="#d6a553" fill-opacity="1"><g transform="translate(124.324957, 157.135863)"><g><path d="M 38.984375 -24.046875 C 38.960938 -23.941406 38.84375 -23.894531 38.625 -23.90625 C 38.414062 -23.925781 38.125 -23.875 37.75 -23.75 C 37.28125 -23.59375 36.703125 -23.328125 36.015625 -22.953125 C 35.328125 -22.578125 34.796875 -22.242188 34.421875 -21.953125 C 34.847656 -21.472656 35.195312 -20.894531 35.46875 -20.21875 C 35.738281 -19.550781 35.875 -18.84375 35.875 -18.09375 C 35.875 -17.519531 35.785156 -16.898438 35.609375 -16.234375 C 35.441406 -15.578125 35.15625 -14.957031 34.75 -14.375 C 33.90625 -13.15625 32.765625 -12.210938 31.328125 -11.546875 C 29.890625 -10.890625 28.472656 -10.5625 27.078125 -10.5625 C 26.828125 -10.5625 26.578125 -10.570312 26.328125 -10.59375 C 26.078125 -10.625 25.78125 -10.675781 25.4375 -10.75 C 25.257812 -10.800781 25.085938 -10.875 24.921875 -10.96875 C 24.765625 -11.070312 24.734375 -11.210938 24.828125 -11.390625 C 24.984375 -11.554688 25.234375 -11.554688 25.578125 -11.390625 C 25.859375 -11.234375 26.070312 -11.128906 26.21875 -11.078125 C 26.363281 -11.035156 26.613281 -11.015625 26.96875 -11.015625 C 28.144531 -11.015625 29.285156 -11.363281 30.390625 -12.0625 C 31.503906 -12.757812 32.535156 -13.804688 33.484375 -15.203125 C 33.984375 -15.929688 34.335938 -16.613281 34.546875 -17.25 C 34.765625 -17.882812 34.875 -18.476562 34.875 -19.03125 C 34.875 -19.601562 34.789062 -20.113281 34.625 -20.5625 C 34.457031 -21.007812 34.25 -21.359375 34 -21.609375 C 32.550781 -20.515625 31.226562 -19.316406 30.03125 -18.015625 C 28.832031 -16.710938 27.742188 -15.445312 26.765625 -14.21875 C 25.796875 -13 24.898438 -11.929688 24.078125 -11.015625 C 22.203125 -8.890625 20.425781 -7.164062 18.75 -5.84375 C 17.082031 -4.519531 15.492188 -3.492188 13.984375 -2.765625 C 12.472656 -2.046875 11 -1.523438 9.5625 -1.203125 C 8.132812 -0.878906 6.707031 -0.640625 5.28125 -0.484375 C 7.03125 -0.160156 8.769531 0.140625 10.5 0.421875 C 12.238281 0.710938 13.71875 0.859375 14.9375 0.859375 C 16.21875 0.859375 17.425781 0.644531 18.5625 0.21875 C 19.695312 -0.195312 20.660156 -0.941406 21.453125 -2.015625 C 21.578125 -2.171875 21.664062 -2.234375 21.71875 -2.203125 C 21.820312 -2.179688 21.851562 -2.085938 21.8125 -1.921875 C 21.78125 -1.765625 21.738281 -1.609375 21.6875 -1.453125 C 21.238281 -0.0546875 20.492188 1.144531 19.453125 2.15625 C 18.421875 3.164062 17.234375 3.929688 15.890625 4.453125 C 14.554688 4.984375 13.203125 5.25 11.828125 5.25 C 9.859375 5.25 8.128906 4.769531 6.640625 3.8125 C 5.160156 2.863281 4.144531 1.519531 3.59375 -0.21875 C 3.144531 -0.175781 2.601562 -0.0664062 1.96875 0.109375 C 1.332031 0.285156 0.660156 0.453125 -0.046875 0.609375 C -0.765625 0.773438 -1.472656 0.859375 -2.171875 0.859375 C -3.117188 0.859375 -3.59375 0.671875 -3.59375 0.296875 C -3.59375 -0.0234375 -3.40625 -0.273438 -3.03125 -0.453125 C -2.65625 -0.628906 -2.207031 -0.75 -1.6875 -0.8125 C -1.164062 -0.875 -0.675781 -0.90625 -0.21875 -0.90625 C 0.945312 -0.90625 2.171875 -0.863281 3.453125 -0.78125 C 3.347656 -1.207031 3.269531 -1.648438 3.21875 -2.109375 C 3.164062 -2.578125 3.140625 -3.070312 3.140625 -3.59375 C 3.171875 -5.96875 3.691406 -8.378906 4.703125 -10.828125 C 5.710938 -13.273438 7.316406 -15.570312 9.515625 -17.71875 C 10.859375 -19.039062 12.410156 -20.242188 14.171875 -21.328125 C 15.929688 -22.410156 17.847656 -23.269531 19.921875 -23.90625 C 21.992188 -24.550781 24.164062 -24.875 26.4375 -24.875 C 27.863281 -24.875 29.078125 -24.734375 30.078125 -24.453125 C 31.078125 -24.179688 31.894531 -23.859375 32.53125 -23.484375 C 33.164062 -23.109375 33.644531 -22.757812 33.96875 -22.4375 C 34.414062 -22.738281 34.96875 -23.050781 35.625 -23.375 C 36.289062 -23.695312 36.910156 -23.929688 37.484375 -24.078125 C 37.835938 -24.179688 38.179688 -24.234375 38.515625 -24.234375 C 38.859375 -24.234375 39.015625 -24.171875 38.984375 -24.046875 Z M 33.515625 -22.171875 C 32.972656 -22.671875 32.148438 -23.144531 31.046875 -23.59375 C 29.953125 -24.039062 28.515625 -24.265625 26.734375 -24.265625 C 24.742188 -24.265625 22.78125 -23.953125 20.84375 -23.328125 C 18.90625 -22.703125 17.070312 -21.828125 15.34375 -20.703125 C 13.625 -19.585938 12.039062 -18.28125 10.59375 -16.78125 C 8.425781 -14.53125 6.753906 -12.300781 5.578125 -10.09375 C 4.398438 -7.882812 3.789062 -5.71875 3.75 -3.59375 C 3.71875 -3.070312 3.726562 -2.578125 3.78125 -2.109375 C 3.832031 -1.648438 3.921875 -1.207031 4.046875 -0.78125 C 7.242188 -0.988281 10.28125 -2.015625 13.15625 -3.859375 C 16.039062 -5.703125 18.882812 -8.132812 21.6875 -11.15625 C 23.53125 -13.15625 25.429688 -15.144531 27.390625 -17.125 C 29.359375 -19.113281 31.398438 -20.796875 33.515625 -22.171875 Z M 21.09375 -0.96875 C 20.664062 -0.519531 20.175781 -0.0859375 19.625 0.328125 C 19.070312 0.753906 18.390625 1.097656 17.578125 1.359375 C 16.765625 1.628906 15.738281 1.765625 14.5 1.765625 C 13.519531 1.765625 12.566406 1.691406 11.640625 1.546875 C 10.722656 1.410156 9.710938 1.191406 8.609375 0.890625 C 7.515625 0.597656 6.191406 0.210938 4.640625 -0.265625 C 4.421875 -0.316406 4.269531 -0.328125 4.1875 -0.296875 C 4.738281 1.398438 5.738281 2.65625 7.1875 3.46875 C 8.632812 4.28125 10.195312 4.6875 11.875 4.6875 C 13.644531 4.6875 15.375 4.207031 17.0625 3.25 C 18.75 2.300781 20.09375 0.894531 21.09375 -0.96875 Z M 21.09375 -0.96875 "/></g></g></g><g fill="#d6a553" fill-opacity="1"><g transform="translate(150.312695, 157.135863)"><g><path d="M 14.375 -10.71875 C 13.300781 -9.738281 12.265625 -8.757812 11.265625 -7.78125 C 10.273438 -6.8125 9.390625 -5.921875 8.609375 -5.109375 C 7.835938 -4.296875 7.226562 -3.628906 6.78125 -3.109375 C 6.300781 -2.554688 5.914062 -2.070312 5.625 -1.65625 C 5.34375 -1.25 5.203125 -0.921875 5.203125 -0.671875 C 5.203125 -0.453125 5.328125 -0.34375 5.578125 -0.34375 C 5.828125 -0.34375 6.15625 -0.457031 6.5625 -0.6875 C 6.976562 -0.925781 7.410156 -1.203125 7.859375 -1.515625 C 8.316406 -1.828125 8.707031 -2.109375 9.03125 -2.359375 C 9.625 -2.835938 10.238281 -3.351562 10.875 -3.90625 C 11.507812 -4.46875 12.054688 -4.953125 12.515625 -5.359375 C 12.585938 -5.410156 12.671875 -5.457031 12.765625 -5.5 C 12.867188 -5.550781 12.957031 -5.53125 13.03125 -5.4375 C 13.132812 -5.332031 13.070312 -5.179688 12.84375 -4.984375 C 12.289062 -4.453125 11.691406 -3.910156 11.046875 -3.359375 C 10.398438 -2.816406 9.835938 -2.359375 9.359375 -1.984375 C 8.984375 -1.679688 8.550781 -1.351562 8.0625 -1 C 7.582031 -0.65625 7.097656 -0.359375 6.609375 -0.109375 C 6.117188 0.140625 5.6875 0.265625 5.3125 0.265625 C 4.4375 0.265625 4 -0.160156 4 -1.015625 C 4 -1.285156 4.082031 -1.617188 4.25 -2.015625 C 4.414062 -2.421875 4.695312 -2.859375 5.09375 -3.328125 C 4.019531 -2.359375 2.945312 -1.515625 1.875 -0.796875 C 0.800781 -0.0859375 -0.0351562 0.265625 -0.640625 0.265625 C -1.484375 0.265625 -1.90625 -0.144531 -1.90625 -0.96875 C -1.9375 -1.644531 -1.671875 -2.472656 -1.109375 -3.453125 C -0.546875 -4.441406 0.160156 -5.363281 1.015625 -6.21875 C 1.859375 -7.09375 2.820312 -7.894531 3.90625 -8.625 C 5 -9.363281 6.066406 -9.957031 7.109375 -10.40625 C 8.160156 -10.863281 9.035156 -11.09375 9.734375 -11.09375 C 10.085938 -11.09375 10.375 -11.035156 10.59375 -10.921875 C 10.820312 -10.804688 10.9375 -10.585938 10.9375 -10.265625 C 10.9375 -10.066406 10.859375 -9.8125 10.703125 -9.5 C 10.554688 -9.1875 10.269531 -8.816406 9.84375 -8.390625 C 9.820312 -8.367188 9.816406 -8.347656 9.828125 -8.328125 C 9.835938 -8.316406 9.859375 -8.328125 9.890625 -8.359375 C 10.460938 -8.929688 11.035156 -9.414062 11.609375 -9.8125 C 12.179688 -10.207031 12.617188 -10.457031 12.921875 -10.5625 C 13.117188 -10.632812 13.3125 -10.675781 13.5 -10.6875 C 13.6875 -10.707031 13.878906 -10.71875 14.078125 -10.71875 Z M 10.40625 -10.109375 C 10.40625 -10.390625 10.257812 -10.53125 9.96875 -10.53125 C 9.4375 -10.53125 8.539062 -10.082031 7.28125 -9.1875 C 6.019531 -8.300781 4.503906 -7.007812 2.734375 -5.3125 C 1.804688 -4.394531 1 -3.5 0.3125 -2.625 C -0.375 -1.75 -0.71875 -1.097656 -0.71875 -0.671875 C -0.71875 -0.578125 -0.695312 -0.488281 -0.65625 -0.40625 C -0.613281 -0.332031 -0.507812 -0.296875 -0.34375 -0.296875 C -0.0078125 -0.296875 0.515625 -0.519531 1.234375 -0.96875 C 1.960938 -1.414062 2.804688 -2.039062 3.765625 -2.84375 C 4.722656 -3.644531 5.691406 -4.546875 6.671875 -5.546875 C 7.117188 -5.992188 7.632812 -6.507812 8.21875 -7.09375 C 8.800781 -7.6875 9.3125 -8.257812 9.75 -8.8125 C 10.1875 -9.375 10.40625 -9.804688 10.40625 -10.109375 Z M 10.40625 -10.109375 "/></g></g></g><g fill="#d6a553" fill-opacity="1"><g transform="translate(162.070837, 157.135863)"><g><path d="M 13.453125 -5.171875 C 13.546875 -5.066406 13.539062 -4.957031 13.4375 -4.84375 C 13.34375 -4.738281 13.242188 -4.644531 13.140625 -4.5625 C 12.566406 -4.0625 11.910156 -3.503906 11.171875 -2.890625 C 10.441406 -2.285156 9.726562 -1.734375 9.03125 -1.234375 C 8.332031 -0.765625 7.671875 -0.382812 7.046875 -0.09375 C 6.421875 0.195312 5.882812 0.34375 5.4375 0.34375 C 4.53125 0.34375 4.078125 -0.109375 4.078125 -1.015625 C 4.078125 -1.609375 4.351562 -2.296875 4.90625 -3.078125 C 5.382812 -3.722656 5.847656 -4.273438 6.296875 -4.734375 C 6.742188 -5.203125 7.351562 -5.785156 8.125 -6.484375 C 8.53125 -6.828125 9.03125 -7.253906 9.625 -7.765625 C 10.226562 -8.285156 10.765625 -8.773438 11.234375 -9.234375 C 11.710938 -9.691406 11.953125 -10.019531 11.953125 -10.21875 C 11.953125 -10.375 11.863281 -10.453125 11.6875 -10.453125 C 11.363281 -10.453125 10.835938 -10.269531 10.109375 -9.90625 C 9.390625 -9.539062 8.570312 -9.070312 7.65625 -8.5 C 6.75 -7.925781 5.851562 -7.3125 4.96875 -6.65625 C 4.082031 -6.007812 3.335938 -5.398438 2.734375 -4.828125 C 2.109375 -4.253906 1.5625 -3.71875 1.09375 -3.21875 C 0.632812 -2.71875 0.164062 -2.1875 -0.3125 -1.625 C -0.800781 -1.0625 -1.367188 -0.359375 -2.015625 0.484375 C -2.171875 0.484375 -2.289062 0.394531 -2.375 0.21875 C -2.46875 0.0507812 -2.515625 -0.144531 -2.515625 -0.375 C -2.515625 -0.644531 -2.300781 -1.128906 -1.875 -1.828125 C -1.445312 -2.535156 -0.859375 -3.363281 -0.109375 -4.3125 C 0.640625 -5.257812 1.5 -6.234375 2.46875 -7.234375 C 3.070312 -7.878906 3.6875 -8.46875 4.3125 -9 C 4.9375 -9.539062 5.472656 -9.960938 5.921875 -10.265625 C 6.242188 -10.460938 6.640625 -10.609375 7.109375 -10.703125 C 7.585938 -10.804688 8.066406 -10.859375 8.546875 -10.859375 C 7.890625 -10.410156 7.085938 -9.757812 6.140625 -8.90625 C 5.191406 -8.0625 4.304688 -7.164062 3.484375 -6.21875 C 3.429688 -6.164062 3.410156 -6.125 3.421875 -6.09375 C 3.441406 -6.070312 3.460938 -6.078125 3.484375 -6.109375 C 3.953125 -6.503906 4.5625 -6.976562 5.3125 -7.53125 C 6.0625 -8.082031 6.859375 -8.625 7.703125 -9.15625 C 8.554688 -9.695312 9.363281 -10.140625 10.125 -10.484375 C 10.882812 -10.835938 11.515625 -11.015625 12.015625 -11.015625 C 12.441406 -11.015625 12.75 -10.90625 12.9375 -10.6875 C 13.125 -10.476562 13.21875 -10.238281 13.21875 -9.96875 C 13.21875 -9.539062 13.015625 -9.050781 12.609375 -8.5 C 12.210938 -7.945312 11.742188 -7.398438 11.203125 -6.859375 C 10.671875 -6.328125 10.179688 -5.863281 9.734375 -5.46875 C 9.140625 -4.914062 8.59375 -4.394531 8.09375 -3.90625 C 7.59375 -3.425781 7.140625 -2.972656 6.734375 -2.546875 C 6.265625 -2.046875 5.921875 -1.648438 5.703125 -1.359375 C 5.492188 -1.078125 5.390625 -0.835938 5.390625 -0.640625 C 5.390625 -0.390625 5.53125 -0.265625 5.8125 -0.265625 C 6.101562 -0.265625 6.539062 -0.410156 7.125 -0.703125 C 7.71875 -1.003906 8.328125 -1.367188 8.953125 -1.796875 C 9.597656 -2.273438 10.296875 -2.832031 11.046875 -3.46875 C 11.796875 -4.101562 12.421875 -4.617188 12.921875 -5.015625 C 12.992188 -5.085938 13.078125 -5.148438 13.171875 -5.203125 C 13.273438 -5.253906 13.367188 -5.242188 13.453125 -5.171875 Z M 13.453125 -5.171875 "/></g></g></g><g fill="#d6a553" fill-opacity="1"><g transform="translate(174.577894, 157.135863)"><g><path d="M 16.59375 -18.09375 C 14.789062 -16.769531 12.984375 -15.300781 11.171875 -13.6875 C 9.367188 -12.070312 7.679688 -10.488281 6.109375 -8.9375 C 4.535156 -7.394531 3.195312 -6.023438 2.09375 -4.828125 C 2.070312 -4.804688 2.070312 -4.78125 2.09375 -4.75 C 2.125 -4.726562 2.148438 -4.726562 2.171875 -4.75 C 2.671875 -5.175781 3.28125 -5.671875 4 -6.234375 C 4.726562 -6.796875 5.617188 -7.441406 6.671875 -8.171875 C 7.296875 -8.617188 7.976562 -9.066406 8.71875 -9.515625 C 9.46875 -9.960938 10.21875 -10.335938 10.96875 -10.640625 C 11.71875 -10.941406 12.40625 -11.09375 13.03125 -11.09375 C 13.550781 -11.09375 13.898438 -10.972656 14.078125 -10.734375 C 14.253906 -10.492188 14.34375 -10.238281 14.34375 -9.96875 C 14.34375 -9.757812 14.28125 -9.570312 14.15625 -9.40625 C 14.03125 -9.25 13.894531 -9.144531 13.75 -9.09375 C 13.675781 -9.09375 13.585938 -9.148438 13.484375 -9.265625 C 13.378906 -9.378906 13.226562 -9.5 13.03125 -9.625 C 12.726562 -9.851562 12.351562 -9.96875 11.90625 -9.96875 C 11.132812 -9.96875 10.378906 -9.765625 9.640625 -9.359375 C 8.910156 -8.960938 8.34375 -8.628906 7.9375 -8.359375 C 7.613281 -7.984375 7.3125 -7.53125 7.03125 -7 C 6.757812 -6.476562 6.523438 -5.96875 6.328125 -5.46875 C 6.128906 -4.96875 5.976562 -4.566406 5.875 -4.265625 C 5.707031 -3.722656 5.535156 -3.179688 5.359375 -2.640625 C 5.179688 -2.097656 5.09375 -1.65625 5.09375 -1.3125 C 5.09375 -0.882812 5.28125 -0.671875 5.65625 -0.671875 C 5.90625 -0.648438 6.257812 -0.78125 6.71875 -1.0625 C 7.1875 -1.351562 7.816406 -1.796875 8.609375 -2.390625 C 8.910156 -2.617188 9.285156 -2.921875 9.734375 -3.296875 C 10.179688 -3.671875 10.617188 -4.035156 11.046875 -4.390625 C 11.472656 -4.753906 11.785156 -5.023438 11.984375 -5.203125 C 12.035156 -5.253906 12.101562 -5.304688 12.1875 -5.359375 C 12.28125 -5.410156 12.363281 -5.394531 12.4375 -5.3125 C 12.53125 -5.164062 12.476562 -5.003906 12.28125 -4.828125 C 11.78125 -4.359375 11.222656 -3.859375 10.609375 -3.328125 C 10.003906 -2.804688 9.378906 -2.304688 8.734375 -1.828125 C 7.828125 -1.160156 7.035156 -0.628906 6.359375 -0.234375 C 5.691406 0.148438 5.109375 0.34375 4.609375 0.34375 C 3.753906 0.34375 3.328125 -0.132812 3.328125 -1.09375 C 3.328125 -1.363281 3.367188 -1.6875 3.453125 -2.0625 C 3.546875 -2.4375 3.644531 -2.785156 3.75 -3.109375 C 3.945312 -3.703125 4.210938 -4.335938 4.546875 -5.015625 C 4.890625 -5.691406 5.234375 -6.304688 5.578125 -6.859375 C 5.304688 -6.679688 5.019531 -6.476562 4.71875 -6.25 C 4.414062 -6.03125 4.09375 -5.78125 3.75 -5.5 C 3.125 -5.03125 2.523438 -4.546875 1.953125 -4.046875 C 1.378906 -3.546875 0.953125 -3.160156 0.671875 -2.890625 C 0.398438 -2.554688 0 -2.050781 -0.53125 -1.375 C -1.070312 -0.707031 -1.503906 -0.0859375 -1.828125 0.484375 C -2.203125 0.484375 -2.390625 0.144531 -2.390625 -0.53125 C -2.390625 -0.875 -2.128906 -1.4375 -1.609375 -2.21875 C -1.085938 -3.007812 -0.425781 -3.90625 0.375 -4.90625 C 1.175781 -5.90625 2 -6.851562 2.84375 -7.75 C 3.769531 -8.75 4.78125 -9.769531 5.875 -10.8125 C 6.976562 -11.863281 8.097656 -12.890625 9.234375 -13.890625 C 10.367188 -14.890625 11.441406 -15.789062 12.453125 -16.59375 C 13.460938 -17.394531 14.34375 -18.03125 15.09375 -18.5 C 15.363281 -18.675781 15.703125 -18.863281 16.109375 -19.0625 C 16.523438 -19.257812 16.898438 -19.410156 17.234375 -19.515625 C 17.609375 -19.640625 17.972656 -19.710938 18.328125 -19.734375 C 18.691406 -19.765625 19.113281 -19.78125 19.59375 -19.78125 C 19.6875 -19.78125 19.6875 -19.753906 19.59375 -19.703125 C 19.039062 -19.578125 18.488281 -19.34375 17.9375 -19 C 17.382812 -18.664062 16.9375 -18.363281 16.59375 -18.09375 Z M 16.59375 -18.09375 "/></g></g></g><g fill="#d6a553" fill-opacity="1"><g transform="translate(185.924124, 157.135863)"><g><path d="M 14.375 -10.71875 C 13.300781 -9.738281 12.265625 -8.757812 11.265625 -7.78125 C 10.273438 -6.8125 9.390625 -5.921875 8.609375 -5.109375 C 7.835938 -4.296875 7.226562 -3.628906 6.78125 -3.109375 C 6.300781 -2.554688 5.914062 -2.070312 5.625 -1.65625 C 5.34375 -1.25 5.203125 -0.921875 5.203125 -0.671875 C 5.203125 -0.453125 5.328125 -0.34375 5.578125 -0.34375 C 5.828125 -0.34375 6.15625 -0.457031 6.5625 -0.6875 C 6.976562 -0.925781 7.410156 -1.203125 7.859375 -1.515625 C 8.316406 -1.828125 8.707031 -2.109375 9.03125 -2.359375 C 9.625 -2.835938 10.238281 -3.351562 10.875 -3.90625 C 11.507812 -4.46875 12.054688 -4.953125 12.515625 -5.359375 C 12.585938 -5.410156 12.671875 -5.457031 12.765625 -5.5 C 12.867188 -5.550781 12.957031 -5.53125 13.03125 -5.4375 C 13.132812 -5.332031 13.070312 -5.179688 12.84375 -4.984375 C 12.289062 -4.453125 11.691406 -3.910156 11.046875 -3.359375 C 10.398438 -2.816406 9.835938 -2.359375 9.359375 -1.984375 C 8.984375 -1.679688 8.550781 -1.351562 8.0625 -1 C 7.582031 -0.65625 7.097656 -0.359375 6.609375 -0.109375 C 6.117188 0.140625 5.6875 0.265625 5.3125 0.265625 C 4.4375 0.265625 4 -0.160156 4 -1.015625 C 4 -1.285156 4.082031 -1.617188 4.25 -2.015625 C 4.414062 -2.421875 4.695312 -2.859375 5.09375 -3.328125 C 4.019531 -2.359375 2.945312 -1.515625 1.875 -0.796875 C 0.800781 -0.0859375 -0.0351562 0.265625 -0.640625 0.265625 C -1.484375 0.265625 -1.90625 -0.144531 -1.90625 -0.96875 C -1.9375 -1.644531 -1.671875 -2.472656 -1.109375 -3.453125 C -0.546875 -4.441406 0.160156 -5.363281 1.015625 -6.21875 C 1.859375 -7.09375 2.820312 -7.894531 3.90625 -8.625 C 5 -9.363281 6.066406 -9.957031 7.109375 -10.40625 C 8.160156 -10.863281 9.035156 -11.09375 9.734375 -11.09375 C 10.085938 -11.09375 10.375 -11.035156 10.59375 -10.921875 C 10.820312 -10.804688 10.9375 -10.585938 10.9375 -10.265625 C 10.9375 -10.066406 10.859375 -9.8125 10.703125 -9.5 C 10.554688 -9.1875 10.269531 -8.816406 9.84375 -8.390625 C 9.820312 -8.367188 9.816406 -8.347656 9.828125 -8.328125 C 9.835938 -8.316406 9.859375 -8.328125 9.890625 -8.359375 C 10.460938 -8.929688 11.035156 -9.414062 11.609375 -9.8125 C 12.179688 -10.207031 12.617188 -10.457031 12.921875 -10.5625 C 13.117188 -10.632812 13.3125 -10.675781 13.5 -10.6875 C 13.6875 -10.707031 13.878906 -10.71875 14.078125 -10.71875 Z M 10.40625 -10.109375 C 10.40625 -10.390625 10.257812 -10.53125 9.96875 -10.53125 C 9.4375 -10.53125 8.539062 -10.082031 7.28125 -9.1875 C 6.019531 -8.300781 4.503906 -7.007812 2.734375 -5.3125 C 1.804688 -4.394531 1 -3.5 0.3125 -2.625 C -0.375 -1.75 -0.71875 -1.097656 -0.71875 -0.671875 C -0.71875 -0.578125 -0.695312 -0.488281 -0.65625 -0.40625 C -0.613281 -0.332031 -0.507812 -0.296875 -0.34375 -0.296875 C -0.0078125 -0.296875 0.515625 -0.519531 1.234375 -0.96875 C 1.960938 -1.414062 2.804688 -2.039062 3.765625 -2.84375 C 4.722656 -3.644531 5.691406 -4.546875 6.671875 -5.546875 C 7.117188 -5.992188 7.632812 -6.507812 8.21875 -7.09375 C 8.800781 -7.6875 9.3125 -8.257812 9.75 -8.8125 C 10.1875 -9.375 10.40625 -9.804688 10.40625 -10.109375 Z M 10.40625 -10.109375 "/></g></g></g><g fill="#d6a553" fill-opacity="1"><g transform="translate(197.682266, 157.135863)"><g><path d="M 11.3125 -13.96875 C 11.3125 -13.695312 11.195312 -13.453125 10.96875 -13.234375 C 10.75 -13.023438 10.5 -12.921875 10.21875 -12.921875 C 9.945312 -12.921875 9.703125 -13.023438 9.484375 -13.234375 C 9.273438 -13.453125 9.171875 -13.695312 9.171875 -13.96875 C 9.171875 -14.238281 9.273438 -14.476562 9.484375 -14.6875 C 9.703125 -14.90625 9.945312 -15.015625 10.21875 -15.015625 C 10.5 -15.015625 10.75 -14.90625 10.96875 -14.6875 C 11.195312 -14.476562 11.3125 -14.238281 11.3125 -13.96875 Z M 8.953125 -10.859375 C 8.398438 -10.410156 7.726562 -9.804688 6.9375 -9.046875 C 6.15625 -8.285156 5.363281 -7.492188 4.5625 -6.671875 C 3.769531 -5.847656 3.035156 -5.070312 2.359375 -4.34375 C 1.679688 -3.625 1.171875 -3.078125 0.828125 -2.703125 C 0.203125 -2.046875 -0.539062 -1.257812 -1.40625 -0.34375 C -2.269531 0.5625 -3.1875 1.476562 -4.15625 2.40625 C -5.132812 3.34375 -6.082031 4.1875 -7 4.9375 C -8.226562 5.914062 -9.601562 6.847656 -11.125 7.734375 C -12.644531 8.617188 -14.234375 9.34375 -15.890625 9.90625 C -17.554688 10.46875 -19.226562 10.75 -20.90625 10.75 C -22.875 10.75 -24.546875 10.378906 -25.921875 9.640625 C -27.296875 8.910156 -28.117188 7.796875 -28.390625 6.296875 C -28.460938 5.972656 -28.472656 5.734375 -28.421875 5.578125 C -28.378906 5.429688 -28.304688 5.34375 -28.203125 5.3125 C -28.078125 5.269531 -28 5.320312 -27.96875 5.46875 C -27.945312 5.613281 -27.898438 5.828125 -27.828125 6.109375 C -27.554688 7.484375 -26.800781 8.492188 -25.5625 9.140625 C -24.320312 9.785156 -22.789062 10.109375 -20.96875 10.109375 C -19.820312 10.109375 -18.660156 9.914062 -17.484375 9.53125 C -16.316406 9.144531 -15.175781 8.648438 -14.0625 8.046875 C -12.945312 7.453125 -11.898438 6.796875 -10.921875 6.078125 C -9.953125 5.367188 -9.097656 4.703125 -8.359375 4.078125 C -7.234375 3.128906 -5.820312 1.800781 -4.125 0.09375 C -2.425781 -1.613281 -0.648438 -3.441406 1.203125 -5.390625 C 1.703125 -5.921875 2.285156 -6.507812 2.953125 -7.15625 C 3.628906 -7.800781 4.273438 -8.40625 4.890625 -8.96875 C 5.503906 -9.53125 5.972656 -9.9375 6.296875 -10.1875 C 6.691406 -10.488281 7.175781 -10.679688 7.75 -10.765625 C 8.320312 -10.859375 8.722656 -10.890625 8.953125 -10.859375 Z M 8.953125 -10.859375 "/></g></g></g><g fill="#d6a553" fill-opacity="1"><g transform="translate(203.673674, 157.135863)"><g/></g></g><g fill="#d6a553" fill-opacity="1"><g transform="translate(211.462513, 157.135863)"><g><path d="M 42.25 -24.53125 C 43.394531 -24.53125 44.363281 -24.285156 45.15625 -23.796875 C 45.957031 -23.316406 46.359375 -22.765625 46.359375 -22.140625 C 46.359375 -21.960938 46.328125 -21.800781 46.265625 -21.65625 C 46.210938 -21.519531 46.082031 -21.453125 45.875 -21.453125 C 45.75 -21.453125 45.648438 -21.535156 45.578125 -21.703125 C 45.503906 -21.867188 45.40625 -22.050781 45.28125 -22.25 C 44.882812 -23.050781 44.390625 -23.554688 43.796875 -23.765625 C 43.210938 -23.972656 42.632812 -24.078125 42.0625 -24.078125 C 40.488281 -24.078125 38.90625 -23.519531 37.3125 -22.40625 C 35.726562 -21.300781 34.03125 -19.71875 32.21875 -17.65625 C 30.414062 -15.59375 28.390625 -13.128906 26.140625 -10.265625 C 22.742188 -5.941406 19.503906 -2.742188 16.421875 -0.671875 C 13.335938 1.398438 10.4375 2.4375 7.71875 2.4375 C 5.820312 2.4375 4.320312 1.984375 3.21875 1.078125 C 2.125 0.179688 1.578125 -1.210938 1.578125 -3.109375 C 1.578125 -4.003906 1.738281 -5.050781 2.0625 -6.25 C 2.382812 -7.445312 2.992188 -8.769531 3.890625 -10.21875 C 4.796875 -11.664062 6.097656 -13.21875 7.796875 -14.875 C 9.890625 -16.863281 12.003906 -18.328125 14.140625 -19.265625 C 16.273438 -20.203125 18.128906 -20.671875 19.703125 -20.671875 C 21.148438 -20.671875 22.1875 -20.332031 22.8125 -19.65625 C 23.4375 -18.988281 23.75 -18.15625 23.75 -17.15625 C 23.75 -15.632812 23.203125 -13.9375 22.109375 -12.0625 C 21.023438 -10.1875 19.5 -8.328125 17.53125 -6.484375 C 16.007812 -5.109375 14.40625 -3.957031 12.71875 -3.03125 C 11.03125 -2.101562 9.347656 -1.664062 7.671875 -1.71875 C 7.128906 -1.75 6.660156 -1.859375 6.265625 -2.046875 C 5.878906 -2.234375 5.625 -2.515625 5.5 -2.890625 C 5.351562 -3.210938 5.367188 -3.398438 5.546875 -3.453125 C 5.640625 -3.472656 5.710938 -3.414062 5.765625 -3.28125 C 5.816406 -3.144531 5.878906 -3.015625 5.953125 -2.890625 C 6.078125 -2.679688 6.273438 -2.507812 6.546875 -2.375 C 6.828125 -2.238281 7.179688 -2.171875 7.609375 -2.171875 C 8.722656 -2.171875 9.816406 -2.441406 10.890625 -2.984375 C 11.972656 -3.535156 13.007812 -4.21875 14 -5.03125 C 15 -5.84375 15.953125 -6.660156 16.859375 -7.484375 C 17.953125 -8.484375 18.984375 -9.539062 19.953125 -10.65625 C 20.929688 -11.769531 21.71875 -12.894531 22.3125 -14.03125 C 22.914062 -15.164062 23.21875 -16.253906 23.21875 -17.296875 C 23.21875 -18.171875 22.9375 -18.863281 22.375 -19.375 C 21.8125 -19.894531 21.046875 -20.15625 20.078125 -20.15625 C 18.679688 -20.175781 16.992188 -19.648438 15.015625 -18.578125 C 13.046875 -17.503906 10.953125 -15.90625 8.734375 -13.78125 C 4.359375 -9.632812 2.171875 -5.953125 2.171875 -2.734375 C 2.171875 -1.210938 2.644531 -0.0625 3.59375 0.71875 C 4.539062 1.507812 5.800781 1.90625 7.375 1.90625 C 9.195312 1.90625 11.015625 1.378906 12.828125 0.328125 C 14.640625 -0.710938 16.492188 -2.191406 18.390625 -4.109375 C 20.285156 -6.035156 22.257812 -8.320312 24.3125 -10.96875 C 26.882812 -14.320312 29.191406 -16.984375 31.234375 -18.953125 C 33.285156 -20.921875 35.195312 -22.34375 36.96875 -23.21875 C 38.738281 -24.09375 40.5 -24.53125 42.25 -24.53125 Z M 42.25 -24.53125 "/></g></g></g><g fill="#d6a553" fill-opacity="1"><g transform="translate(236.925994, 157.135863)"><g><path d="M 12.015625 -11.015625 C 12.441406 -11.015625 12.75 -10.910156 12.9375 -10.703125 C 13.125 -10.503906 13.21875 -10.28125 13.21875 -10.03125 C 13.21875 -9.582031 13.015625 -9.082031 12.609375 -8.53125 C 12.210938 -7.988281 11.742188 -7.441406 11.203125 -6.890625 C 10.671875 -6.335938 10.179688 -5.863281 9.734375 -5.46875 C 9.140625 -4.914062 8.59375 -4.394531 8.09375 -3.90625 C 7.59375 -3.425781 7.140625 -2.972656 6.734375 -2.546875 C 6.265625 -2.046875 5.921875 -1.648438 5.703125 -1.359375 C 5.492188 -1.078125 5.390625 -0.835938 5.390625 -0.640625 C 5.390625 -0.390625 5.53125 -0.265625 5.8125 -0.265625 C 6.101562 -0.265625 6.535156 -0.40625 7.109375 -0.6875 C 7.691406 -0.976562 8.289062 -1.347656 8.90625 -1.796875 C 9.5625 -2.273438 10.269531 -2.832031 11.03125 -3.46875 C 11.789062 -4.101562 12.421875 -4.617188 12.921875 -5.015625 C 12.992188 -5.085938 13.078125 -5.148438 13.171875 -5.203125 C 13.273438 -5.253906 13.367188 -5.242188 13.453125 -5.171875 C 13.546875 -5.066406 13.539062 -4.957031 13.4375 -4.84375 C 13.34375 -4.738281 13.242188 -4.644531 13.140625 -4.5625 C 12.566406 -4.0625 11.910156 -3.503906 11.171875 -2.890625 C 10.441406 -2.285156 9.726562 -1.734375 9.03125 -1.234375 C 8.351562 -0.765625 7.695312 -0.382812 7.0625 -0.09375 C 6.425781 0.195312 5.882812 0.34375 5.4375 0.34375 C 4.53125 0.34375 4.078125 -0.109375 4.078125 -1.015625 C 4.078125 -1.609375 4.351562 -2.296875 4.90625 -3.078125 C 5.382812 -3.722656 5.847656 -4.273438 6.296875 -4.734375 C 6.742188 -5.203125 7.351562 -5.785156 8.125 -6.484375 C 8.40625 -6.753906 8.753906 -7.0625 9.171875 -7.40625 C 9.597656 -7.757812 10.023438 -8.125 10.453125 -8.5 C 10.878906 -8.875 11.234375 -9.210938 11.515625 -9.515625 C 11.804688 -9.816406 11.953125 -10.050781 11.953125 -10.21875 C 11.953125 -10.375 11.863281 -10.453125 11.6875 -10.453125 C 11.363281 -10.453125 10.828125 -10.265625 10.078125 -9.890625 C 9.328125 -9.515625 8.484375 -9.023438 7.546875 -8.421875 C 6.609375 -7.828125 5.707031 -7.210938 4.84375 -6.578125 C 3.988281 -5.941406 3.285156 -5.359375 2.734375 -4.828125 C 2.109375 -4.253906 1.5625 -3.71875 1.09375 -3.21875 C 0.632812 -2.71875 0.164062 -2.1875 -0.3125 -1.625 C -0.800781 -1.0625 -1.367188 -0.359375 -2.015625 0.484375 C -2.171875 0.484375 -2.289062 0.394531 -2.375 0.21875 C -2.46875 0.0507812 -2.515625 -0.144531 -2.515625 -0.375 C -2.515625 -0.644531 -2.28125 -1.15625 -1.8125 -1.90625 C -1.351562 -2.65625 -0.726562 -3.535156 0.0625 -4.546875 C 0.863281 -5.554688 1.753906 -6.578125 2.734375 -7.609375 C 3.679688 -8.628906 4.71875 -9.679688 5.84375 -10.765625 C 6.96875 -11.847656 8.097656 -12.890625 9.234375 -13.890625 C 10.367188 -14.890625 11.441406 -15.789062 12.453125 -16.59375 C 13.460938 -17.394531 14.34375 -18.03125 15.09375 -18.5 C 15.363281 -18.675781 15.703125 -18.863281 16.109375 -19.0625 C 16.523438 -19.257812 16.898438 -19.410156 17.234375 -19.515625 C 17.609375 -19.640625 17.972656 -19.710938 18.328125 -19.734375 C 18.691406 -19.765625 19.113281 -19.78125 19.59375 -19.78125 C 19.6875 -19.78125 19.6875 -19.753906 19.59375 -19.703125 C 19.039062 -19.578125 18.488281 -19.34375 17.9375 -19 C 17.382812 -18.664062 16.9375 -18.363281 16.59375 -18.09375 C 15.738281 -17.46875 14.742188 -16.6875 13.609375 -15.75 C 12.472656 -14.8125 11.289062 -13.789062 10.0625 -12.6875 C 8.84375 -11.59375 7.660156 -10.484375 6.515625 -9.359375 C 5.367188 -8.234375 4.359375 -7.1875 3.484375 -6.21875 C 3.429688 -6.164062 3.410156 -6.125 3.421875 -6.09375 C 3.441406 -6.070312 3.460938 -6.078125 3.484375 -6.109375 C 3.953125 -6.503906 4.5625 -6.976562 5.3125 -7.53125 C 6.0625 -8.082031 6.859375 -8.625 7.703125 -9.15625 C 8.554688 -9.695312 9.363281 -10.140625 10.125 -10.484375 C 10.882812 -10.835938 11.515625 -11.015625 12.015625 -11.015625 Z M 12.015625 -11.015625 "/></g></g></g><g fill="#d6a553" fill-opacity="1"><g transform="translate(249.433051, 157.135863)"><g><path d="M 14.375 -10.71875 C 13.300781 -9.738281 12.265625 -8.757812 11.265625 -7.78125 C 10.273438 -6.8125 9.390625 -5.921875 8.609375 -5.109375 C 7.835938 -4.296875 7.226562 -3.628906 6.78125 -3.109375 C 6.300781 -2.554688 5.914062 -2.070312 5.625 -1.65625 C 5.34375 -1.25 5.203125 -0.921875 5.203125 -0.671875 C 5.203125 -0.453125 5.328125 -0.34375 5.578125 -0.34375 C 5.828125 -0.34375 6.15625 -0.457031 6.5625 -0.6875 C 6.976562 -0.925781 7.410156 -1.203125 7.859375 -1.515625 C 8.316406 -1.828125 8.707031 -2.109375 9.03125 -2.359375 C 9.625 -2.835938 10.238281 -3.351562 10.875 -3.90625 C 11.507812 -4.46875 12.054688 -4.953125 12.515625 -5.359375 C 12.585938 -5.410156 12.671875 -5.457031 12.765625 -5.5 C 12.867188 -5.550781 12.957031 -5.53125 13.03125 -5.4375 C 13.132812 -5.332031 13.070312 -5.179688 12.84375 -4.984375 C 12.289062 -4.453125 11.691406 -3.910156 11.046875 -3.359375 C 10.398438 -2.816406 9.835938 -2.359375 9.359375 -1.984375 C 8.984375 -1.679688 8.550781 -1.351562 8.0625 -1 C 7.582031 -0.65625 7.097656 -0.359375 6.609375 -0.109375 C 6.117188 0.140625 5.6875 0.265625 5.3125 0.265625 C 4.4375 0.265625 4 -0.160156 4 -1.015625 C 4 -1.285156 4.082031 -1.617188 4.25 -2.015625 C 4.414062 -2.421875 4.695312 -2.859375 5.09375 -3.328125 C 4.019531 -2.359375 2.945312 -1.515625 1.875 -0.796875 C 0.800781 -0.0859375 -0.0351562 0.265625 -0.640625 0.265625 C -1.484375 0.265625 -1.90625 -0.144531 -1.90625 -0.96875 C -1.9375 -1.644531 -1.671875 -2.472656 -1.109375 -3.453125 C -0.546875 -4.441406 0.160156 -5.363281 1.015625 -6.21875 C 1.859375 -7.09375 2.820312 -7.894531 3.90625 -8.625 C 5 -9.363281 6.066406 -9.957031 7.109375 -10.40625 C 8.160156 -10.863281 9.035156 -11.09375 9.734375 -11.09375 C 10.085938 -11.09375 10.375 -11.035156 10.59375 -10.921875 C 10.820312 -10.804688 10.9375 -10.585938 10.9375 -10.265625 C 10.9375 -10.066406 10.859375 -9.8125 10.703125 -9.5 C 10.554688 -9.1875 10.269531 -8.816406 9.84375 -8.390625 C 9.820312 -8.367188 9.816406 -8.347656 9.828125 -8.328125 C 9.835938 -8.316406 9.859375 -8.328125 9.890625 -8.359375 C 10.460938 -8.929688 11.035156 -9.414062 11.609375 -9.8125 C 12.179688 -10.207031 12.617188 -10.457031 12.921875 -10.5625 C 13.117188 -10.632812 13.3125 -10.675781 13.5 -10.6875 C 13.6875 -10.707031 13.878906 -10.71875 14.078125 -10.71875 Z M 10.40625 -10.109375 C 10.40625 -10.390625 10.257812 -10.53125 9.96875 -10.53125 C 9.4375 -10.53125 8.539062 -10.082031 7.28125 -9.1875 C 6.019531 -8.300781 4.503906 -7.007812 2.734375 -5.3125 C 1.804688 -4.394531 1 -3.5 0.3125 -2.625 C -0.375 -1.75 -0.71875 -1.097656 -0.71875 -0.671875 C -0.71875 -0.578125 -0.695312 -0.488281 -0.65625 -0.40625 C -0.613281 -0.332031 -0.507812 -0.296875 -0.34375 -0.296875 C -0.0078125 -0.296875 0.515625 -0.519531 1.234375 -0.96875 C 1.960938 -1.414062 2.804688 -2.039062 3.765625 -2.84375 C 4.722656 -3.644531 5.691406 -4.546875 6.671875 -5.546875 C 7.117188 -5.992188 7.632812 -6.507812 8.21875 -7.09375 C 8.800781 -7.6875 9.3125 -8.257812 9.75 -8.8125 C 10.1875 -9.375 10.40625 -9.804688 10.40625 -10.109375 Z M 10.40625 -10.109375 "/></g></g></g><g fill="#d6a553" fill-opacity="1"><g transform="translate(261.191193, 157.135863)"><g><path d="M 6.0625 -1.234375 C 5.4375 -0.804688 4.847656 -0.445312 4.296875 -0.15625 C 3.753906 0.125 3.269531 0.265625 2.84375 0.265625 C 1.96875 0.265625 1.53125 -0.1875 1.53125 -1.09375 C 1.53125 -1.863281 1.875 -2.695312 2.5625 -3.59375 C 3.25 -4.488281 4.179688 -5.453125 5.359375 -6.484375 C 5.828125 -6.898438 6.316406 -7.335938 6.828125 -7.796875 C 7.347656 -8.265625 7.785156 -8.679688 8.140625 -9.046875 C 8.503906 -9.410156 8.675781 -9.65625 8.65625 -9.78125 C 8.625 -9.925781 8.546875 -10.023438 8.421875 -10.078125 C 8.296875 -10.128906 8.097656 -10.21875 7.828125 -10.34375 C 7.503906 -10.507812 7.28125 -10.671875 7.15625 -10.828125 C 6.75 -10.378906 6.304688 -9.914062 5.828125 -9.4375 C 5.359375 -8.96875 4.875 -8.484375 4.375 -7.984375 C 3.707031 -7.359375 2.972656 -6.675781 2.171875 -5.9375 C 1.367188 -5.195312 0.707031 -4.613281 0.1875 -4.1875 C 0.113281 -4.113281 0.03125 -4.0625 -0.0625 -4.03125 C -0.164062 -4.007812 -0.242188 -4.039062 -0.296875 -4.125 C -0.347656 -4.195312 -0.347656 -4.273438 -0.296875 -4.359375 C -0.242188 -4.453125 -0.179688 -4.519531 -0.109375 -4.5625 C 0.484375 -5.09375 1.15625 -5.691406 1.90625 -6.359375 C 2.65625 -7.035156 3.351562 -7.6875 4 -8.3125 C 4.625 -8.882812 5.171875 -9.414062 5.640625 -9.90625 C 6.117188 -10.394531 6.5625 -10.875 6.96875 -11.34375 C 6.96875 -11.625 7.101562 -11.953125 7.375 -12.328125 C 7.65625 -12.703125 8.003906 -13.050781 8.421875 -13.375 C 8.773438 -13.625 9.097656 -13.816406 9.390625 -13.953125 C 9.691406 -14.085938 9.945312 -14.164062 10.15625 -14.1875 C 10.226562 -14.21875 10.359375 -14.242188 10.546875 -14.265625 C 10.734375 -14.296875 10.914062 -14.3125 11.09375 -14.3125 C 11.457031 -14.3125 11.640625 -14.257812 11.640625 -14.15625 C 11.640625 -14.082031 11.484375 -13.929688 11.171875 -13.703125 C 10.867188 -13.484375 10.53125 -13.265625 10.15625 -13.046875 C 9.78125 -12.835938 9.503906 -12.679688 9.328125 -12.578125 C 8.929688 -12.328125 8.554688 -12.078125 8.203125 -11.828125 C 7.847656 -11.578125 7.671875 -11.351562 7.671875 -11.15625 C 7.671875 -11.0625 7.796875 -10.957031 8.046875 -10.84375 C 8.296875 -10.726562 8.484375 -10.644531 8.609375 -10.59375 C 9.304688 -10.375 9.65625 -10.023438 9.65625 -9.546875 C 9.65625 -9.046875 9.46875 -8.515625 9.09375 -7.953125 C 8.726562 -7.390625 8.28125 -6.835938 7.75 -6.296875 C 7.226562 -5.765625 6.753906 -5.300781 6.328125 -4.90625 C 5.628906 -4.257812 5.015625 -3.6875 4.484375 -3.1875 C 3.960938 -2.6875 3.53125 -2.222656 3.1875 -1.796875 C 2.78125 -1.328125 2.578125 -0.953125 2.578125 -0.671875 C 2.578125 -0.421875 2.726562 -0.296875 3.03125 -0.296875 C 3.382812 -0.296875 3.863281 -0.476562 4.46875 -0.84375 C 5.082031 -1.207031 5.59375 -1.523438 6 -1.796875 C 6.644531 -2.273438 7.34375 -2.832031 8.09375 -3.46875 C 8.84375 -4.101562 9.46875 -4.617188 9.96875 -5.015625 C 10.039062 -5.085938 10.125 -5.148438 10.21875 -5.203125 C 10.320312 -5.253906 10.410156 -5.242188 10.484375 -5.171875 C 10.585938 -5.066406 10.585938 -4.957031 10.484375 -4.84375 C 10.390625 -4.738281 10.289062 -4.644531 10.1875 -4.5625 C 9.613281 -4.0625 8.957031 -3.503906 8.21875 -2.890625 C 7.476562 -2.285156 6.757812 -1.734375 6.0625 -1.234375 Z M 6.0625 -1.234375 "/></g></g></g><g fill="#d6a553" fill-opacity="1"><g transform="translate(270.702555, 157.135863)"><g><path d="M 12.09375 -11.015625 C 12.769531 -11.015625 13.109375 -10.6875 13.109375 -10.03125 C 13.109375 -9.757812 13.046875 -9.445312 12.921875 -9.09375 C 12.796875 -8.75 12.597656 -8.425781 12.328125 -8.125 C 13.046875 -8.601562 13.78125 -9.066406 14.53125 -9.515625 C 15.28125 -9.960938 15.984375 -10.328125 16.640625 -10.609375 C 17.304688 -10.898438 17.835938 -11.046875 18.234375 -11.046875 C 18.660156 -11.046875 18.960938 -10.925781 19.140625 -10.6875 C 19.316406 -10.457031 19.40625 -10.203125 19.40625 -9.921875 C 19.40625 -9.492188 19.203125 -9.003906 18.796875 -8.453125 C 18.398438 -7.910156 17.929688 -7.375 17.390625 -6.84375 C 16.859375 -6.320312 16.367188 -5.863281 15.921875 -5.46875 C 15.316406 -4.914062 14.765625 -4.394531 14.265625 -3.90625 C 13.765625 -3.425781 13.316406 -2.972656 12.921875 -2.546875 C 12.523438 -2.117188 12.203125 -1.742188 11.953125 -1.421875 C 11.703125 -1.097656 11.578125 -0.835938 11.578125 -0.640625 C 11.578125 -0.390625 11.710938 -0.265625 11.984375 -0.265625 C 12.304688 -0.265625 12.75 -0.40625 13.3125 -0.6875 C 13.875 -0.976562 14.46875 -1.347656 15.09375 -1.796875 C 15.894531 -2.367188 16.609375 -2.914062 17.234375 -3.4375 C 17.859375 -3.96875 18.394531 -4.421875 18.84375 -4.796875 C 19.257812 -5.191406 19.53125 -5.328125 19.65625 -5.203125 C 19.738281 -5.148438 19.757812 -5.070312 19.71875 -4.96875 C 19.675781 -4.875 19.609375 -4.789062 19.515625 -4.71875 C 19.210938 -4.46875 18.8125 -4.128906 18.3125 -3.703125 C 17.8125 -3.285156 17.285156 -2.847656 16.734375 -2.390625 C 16.191406 -1.941406 15.679688 -1.554688 15.203125 -1.234375 C 14.554688 -0.765625 13.914062 -0.382812 13.28125 -0.09375 C 12.644531 0.195312 12.085938 0.34375 11.609375 0.34375 C 11.285156 0.34375 10.984375 0.226562 10.703125 0 C 10.429688 -0.226562 10.296875 -0.578125 10.296875 -1.046875 C 10.296875 -1.617188 10.5625 -2.296875 11.09375 -3.078125 C 11.5625 -3.722656 12.019531 -4.273438 12.46875 -4.734375 C 12.914062 -5.203125 13.53125 -5.785156 14.3125 -6.484375 C 14.707031 -6.859375 15.195312 -7.285156 15.78125 -7.765625 C 16.375 -8.253906 16.90625 -8.726562 17.375 -9.1875 C 17.851562 -9.65625 18.09375 -10 18.09375 -10.21875 C 18.09375 -10.375 18.015625 -10.453125 17.859375 -10.453125 C 17.609375 -10.453125 17.128906 -10.28125 16.421875 -9.9375 C 15.710938 -9.601562 14.914062 -9.160156 14.03125 -8.609375 C 13.144531 -8.066406 12.265625 -7.484375 11.390625 -6.859375 C 10.609375 -6.253906 9.820312 -5.609375 9.03125 -4.921875 C 8.25 -4.234375 7.4375 -3.414062 6.59375 -2.46875 C 6.21875 -2.039062 5.796875 -1.546875 5.328125 -0.984375 C 4.867188 -0.429688 4.476562 0.0546875 4.15625 0.484375 C 4.050781 0.484375 3.945312 0.394531 3.84375 0.21875 C 3.75 0.0507812 3.703125 -0.15625 3.703125 -0.40625 C 3.703125 -0.65625 3.898438 -1.101562 4.296875 -1.75 C 4.703125 -2.40625 5.25 -3.15625 5.9375 -4 C 6.625 -4.851562 7.367188 -5.679688 8.171875 -6.484375 C 8.546875 -6.859375 9.03125 -7.296875 9.625 -7.796875 C 10.226562 -8.296875 10.757812 -8.773438 11.21875 -9.234375 C 11.675781 -9.691406 11.90625 -10.019531 11.90625 -10.21875 C 11.90625 -10.375 11.832031 -10.453125 11.6875 -10.453125 C 11.363281 -10.453125 10.835938 -10.273438 10.109375 -9.921875 C 9.390625 -9.578125 8.578125 -9.113281 7.671875 -8.53125 C 6.773438 -7.957031 5.882812 -7.347656 5 -6.703125 C 4.113281 -6.054688 3.359375 -5.429688 2.734375 -4.828125 C 1.535156 -3.679688 0.550781 -2.664062 -0.21875 -1.78125 C -1 -0.894531 -1.597656 -0.140625 -2.015625 0.484375 C -2.117188 0.484375 -2.226562 0.394531 -2.34375 0.21875 C -2.457031 0.0507812 -2.515625 -0.171875 -2.515625 -0.453125 C -2.515625 -0.722656 -2.28125 -1.210938 -1.8125 -1.921875 C -1.351562 -2.640625 -0.75 -3.472656 0 -4.421875 C 0.75 -5.367188 1.570312 -6.304688 2.46875 -7.234375 C 3.070312 -7.878906 3.691406 -8.46875 4.328125 -9 C 4.960938 -9.539062 5.503906 -9.960938 5.953125 -10.265625 C 6.273438 -10.460938 6.664062 -10.609375 7.125 -10.703125 C 7.59375 -10.804688 8.066406 -10.859375 8.546875 -10.859375 C 7.890625 -10.410156 7.085938 -9.757812 6.140625 -8.90625 C 5.191406 -8.0625 4.304688 -7.164062 3.484375 -6.21875 C 3.429688 -6.164062 3.410156 -6.125 3.421875 -6.09375 C 3.441406 -6.070312 3.460938 -6.078125 3.484375 -6.109375 C 3.953125 -6.503906 4.5625 -6.976562 5.3125 -7.53125 C 6.0625 -8.082031 6.859375 -8.625 7.703125 -9.15625 C 8.554688 -9.695312 9.367188 -10.140625 10.140625 -10.484375 C 10.921875 -10.835938 11.570312 -11.015625 12.09375 -11.015625 Z M 12.09375 -11.015625 "/></g></g></g><g fill="#d6a553" fill-opacity="1"><g transform="translate(289.388258, 157.135863)"><g><path d="M 14.375 -10.71875 C 13.300781 -9.738281 12.265625 -8.757812 11.265625 -7.78125 C 10.273438 -6.8125 9.390625 -5.921875 8.609375 -5.109375 C 7.835938 -4.296875 7.226562 -3.628906 6.78125 -3.109375 C 6.300781 -2.554688 5.914062 -2.070312 5.625 -1.65625 C 5.34375 -1.25 5.203125 -0.921875 5.203125 -0.671875 C 5.203125 -0.453125 5.328125 -0.34375 5.578125 -0.34375 C 5.828125 -0.34375 6.15625 -0.457031 6.5625 -0.6875 C 6.976562 -0.925781 7.410156 -1.203125 7.859375 -1.515625 C 8.316406 -1.828125 8.707031 -2.109375 9.03125 -2.359375 C 9.625 -2.835938 10.238281 -3.351562 10.875 -3.90625 C 11.507812 -4.46875 12.054688 -4.953125 12.515625 -5.359375 C 12.585938 -5.410156 12.671875 -5.457031 12.765625 -5.5 C 12.867188 -5.550781 12.957031 -5.53125 13.03125 -5.4375 C 13.132812 -5.332031 13.070312 -5.179688 12.84375 -4.984375 C 12.289062 -4.453125 11.691406 -3.910156 11.046875 -3.359375 C 10.398438 -2.816406 9.835938 -2.359375 9.359375 -1.984375 C 8.984375 -1.679688 8.550781 -1.351562 8.0625 -1 C 7.582031 -0.65625 7.097656 -0.359375 6.609375 -0.109375 C 6.117188 0.140625 5.6875 0.265625 5.3125 0.265625 C 4.4375 0.265625 4 -0.160156 4 -1.015625 C 4 -1.285156 4.082031 -1.617188 4.25 -2.015625 C 4.414062 -2.421875 4.695312 -2.859375 5.09375 -3.328125 C 4.019531 -2.359375 2.945312 -1.515625 1.875 -0.796875 C 0.800781 -0.0859375 -0.0351562 0.265625 -0.640625 0.265625 C -1.484375 0.265625 -1.90625 -0.144531 -1.90625 -0.96875 C -1.9375 -1.644531 -1.671875 -2.472656 -1.109375 -3.453125 C -0.546875 -4.441406 0.160156 -5.363281 1.015625 -6.21875 C 1.859375 -7.09375 2.820312 -7.894531 3.90625 -8.625 C 5 -9.363281 6.066406 -9.957031 7.109375 -10.40625 C 8.160156 -10.863281 9.035156 -11.09375 9.734375 -11.09375 C 10.085938 -11.09375 10.375 -11.035156 10.59375 -10.921875 C 10.820312 -10.804688 10.9375 -10.585938 10.9375 -10.265625 C 10.9375 -10.066406 10.859375 -9.8125 10.703125 -9.5 C 10.554688 -9.1875 10.269531 -8.816406 9.84375 -8.390625 C 9.820312 -8.367188 9.816406 -8.347656 9.828125 -8.328125 C 9.835938 -8.316406 9.859375 -8.328125 9.890625 -8.359375 C 10.460938 -8.929688 11.035156 -9.414062 11.609375 -9.8125 C 12.179688 -10.207031 12.617188 -10.457031 12.921875 -10.5625 C 13.117188 -10.632812 13.3125 -10.675781 13.5 -10.6875 C 13.6875 -10.707031 13.878906 -10.71875 14.078125 -10.71875 Z M 10.40625 -10.109375 C 10.40625 -10.390625 10.257812 -10.53125 9.96875 -10.53125 C 9.4375 -10.53125 8.539062 -10.082031 7.28125 -9.1875 C 6.019531 -8.300781 4.503906 -7.007812 2.734375 -5.3125 C 1.804688 -4.394531 1 -3.5 0.3125 -2.625 C -0.375 -1.75 -0.71875 -1.097656 -0.71875 -0.671875 C -0.71875 -0.578125 -0.695312 -0.488281 -0.65625 -0.40625 C -0.613281 -0.332031 -0.507812 -0.296875 -0.34375 -0.296875 C -0.0078125 -0.296875 0.515625 -0.519531 1.234375 -0.96875 C 1.960938 -1.414062 2.804688 -2.039062 3.765625 -2.84375 C 4.722656 -3.644531 5.691406 -4.546875 6.671875 -5.546875 C 7.117188 -5.992188 7.632812 -6.507812 8.21875 -7.09375 C 8.800781 -7.6875 9.3125 -8.257812 9.75 -8.8125 C 10.1875 -9.375 10.40625 -9.804688 10.40625 -10.109375 Z M 10.40625 -10.109375 "/></g></g></g></svg>