<?xml version="1.0" encoding="UTF-8"?> <svg xmlns="http://www.w3.org/2000/svg" xmlns:xlink="http://www.w3.org/1999/xlink" width="500" zoomAndPan="magnify" viewBox="0 0 375 60" height="80" preserveAspectRatio="xMidYMid meet" version="1.0"><defs><g></g></defs><g fill="#dbbe67" fill-opacity="1"><g transform="translate(15.193445, 36.448072)"><g><path d="M 17.03125 -29.4375 C 21.988281 -29.4375 25.910156 -28.117188 28.796875 -25.484375 C 31.691406 -22.847656 33.140625 -19.257812 33.140625 -14.71875 C 33.140625 -10.175781 31.691406 -6.585938 28.796875 -3.953125 C 25.910156 -1.316406 21.988281 0 17.03125 0 L 1.765625 0 L 1.765625 -0.421875 L 2.3125 -0.421875 C 3.039062 -0.421875 3.664062 -0.675781 4.1875 -1.1875 C 4.707031 -1.707031 4.976562 -2.332031 5 -3.0625 L 5 -26.609375 C 5 -27.285156 4.722656 -27.851562 4.171875 -28.3125 C 3.628906 -28.78125 3.007812 -29.015625 2.3125 -29.015625 L 1.765625 -29.015625 L 1.765625 -29.4375 Z M 16.484375 -1.8125 C 18.503906 -1.8125 20.25 -2.328125 21.71875 -3.359375 C 23.1875 -4.398438 24.3125 -5.894531 25.09375 -7.84375 C 25.882812 -9.789062 26.28125 -11.910156 26.28125 -14.203125 C 26.28125 -16.503906 26.046875 -18.460938 25.578125 -20.078125 C 25.117188 -21.691406 24.46875 -23.054688 23.625 -24.171875 C 21.882812 -26.503906 19.503906 -27.671875 16.484375 -27.671875 L 11.3125 -27.671875 L 11.3125 -1.8125 Z M 16.484375 -1.8125 "></path></g></g></g><g fill="#dbbe67" fill-opacity="1"><g transform="translate(50.00013, 36.448072)"><g><path d="M 2.3125 -0.421875 C 3.039062 -0.421875 3.664062 -0.675781 4.1875 -1.1875 C 4.707031 -1.707031 4.976562 -2.332031 5 -3.0625 L 5 -26.40625 C 4.976562 -27.132812 4.707031 -27.75 4.1875 -28.25 C 3.664062 -28.757812 3.039062 -29.015625 2.3125 -29.015625 L 1.765625 -29.015625 L 1.765625 -29.4375 L 14.546875 -29.4375 L 14.5 -29.015625 L 14 -29.015625 C 13.269531 -29.015625 12.640625 -28.757812 12.109375 -28.25 C 11.578125 -27.75 11.3125 -27.132812 11.3125 -26.40625 L 11.3125 -3.0625 C 11.3125 -2.332031 11.578125 -1.707031 12.109375 -1.1875 C 12.640625 -0.675781 13.269531 -0.421875 14 -0.421875 L 14.5 -0.421875 L 14.546875 0 L 1.765625 0 L 1.765625 -0.421875 Z M 2.3125 -0.421875 "></path></g></g></g><g fill="#dbbe67" fill-opacity="1"><g transform="translate(66.226438, 36.448072)"><g><path d="M 31.03125 -0.421875 L 31.40625 -0.421875 L 31.40625 0 L 18 0 L 18 -0.421875 L 18.375 -0.421875 C 18.988281 -0.421875 19.441406 -0.609375 19.734375 -0.984375 C 20.035156 -1.367188 20.1875 -1.726562 20.1875 -2.0625 C 20.1875 -2.394531 20.117188 -2.726562 19.984375 -3.0625 L 17.921875 -8.234375 L 8.078125 -8.234375 L 5.890625 -3.0625 C 5.753906 -2.695312 5.6875 -2.351562 5.6875 -2.03125 C 5.6875 -1.71875 5.835938 -1.367188 6.140625 -0.984375 C 6.453125 -0.609375 6.914062 -0.421875 7.53125 -0.421875 L 7.875 -0.421875 L 7.875 0 L -1.125 0 L -1.125 -0.421875 L -0.75 -0.421875 C -0.101562 -0.421875 0.539062 -0.613281 1.1875 -1 C 1.832031 -1.394531 2.363281 -1.988281 2.78125 -2.78125 L 12.5 -24.765625 C 13.8125 -27.535156 14.507812 -29.375 14.59375 -30.28125 L 14.96875 -30.28125 L 27.46875 -2.859375 C 27.882812 -2.046875 28.414062 -1.4375 29.0625 -1.03125 C 29.707031 -0.625 30.363281 -0.421875 31.03125 -0.421875 Z M 8.796875 -10 L 17.203125 -10 L 13.125 -20.34375 Z M 8.796875 -10 "></path></g></g></g><g fill="#dbbe67" fill-opacity="1"><g transform="translate(96.324975, 36.448072)"><g><path d="M 34.359375 -29.015625 C 33.367188 -29.015625 32.625 -28.59375 32.125 -27.75 C 31.894531 -27.382812 31.769531 -26.960938 31.75 -26.484375 L 31.75 -4.796875 C 31.75 -2.910156 31.875 -1.328125 32.125 -0.046875 L 32.25 0.59375 L 31.875 0.59375 L 10.640625 -19.640625 L 10.640625 -2.9375 C 10.640625 -2.238281 10.890625 -1.644531 11.390625 -1.15625 C 11.898438 -0.664062 12.503906 -0.421875 13.203125 -0.421875 L 14 -0.421875 L 14 0 L 1.265625 0 L 1.265625 -0.421875 L 2.015625 -0.421875 C 2.742188 -0.421875 3.359375 -0.664062 3.859375 -1.15625 C 4.367188 -1.644531 4.625 -2.253906 4.625 -2.984375 L 4.625 -24.8125 C 4.625 -26.65625 4.5 -28.195312 4.25 -29.4375 L 4.15625 -30.0625 L 4.546875 -30.0625 L 25.78125 -9.84375 L 25.78125 -26.453125 C 25.75 -27.179688 25.476562 -27.789062 24.96875 -28.28125 C 24.46875 -28.769531 23.867188 -29.015625 23.171875 -29.015625 L 22.40625 -29.015625 L 22.40625 -29.4375 L 35.15625 -29.4375 L 35.15625 -29.015625 Z M 34.359375 -29.015625 "></path></g></g></g><g fill="#dbbe67" fill-opacity="1"><g transform="translate(132.687036, 36.448072)"><g><path d="M 31.03125 -0.421875 L 31.40625 -0.421875 L 31.40625 0 L 18 0 L 18 -0.421875 L 18.375 -0.421875 C 18.988281 -0.421875 19.441406 -0.609375 19.734375 -0.984375 C 20.035156 -1.367188 20.1875 -1.726562 20.1875 -2.0625 C 20.1875 -2.394531 20.117188 -2.726562 19.984375 -3.0625 L 17.921875 -8.234375 L 8.078125 -8.234375 L 5.890625 -3.0625 C 5.753906 -2.695312 5.6875 -2.351562 5.6875 -2.03125 C 5.6875 -1.71875 5.835938 -1.367188 6.140625 -0.984375 C 6.453125 -0.609375 6.914062 -0.421875 7.53125 -0.421875 L 7.875 -0.421875 L 7.875 0 L -1.125 0 L -1.125 -0.421875 L -0.75 -0.421875 C -0.101562 -0.421875 0.539062 -0.613281 1.1875 -1 C 1.832031 -1.394531 2.363281 -1.988281 2.78125 -2.78125 L 12.5 -24.765625 C 13.8125 -27.535156 14.507812 -29.375 14.59375 -30.28125 L 14.96875 -30.28125 L 27.46875 -2.859375 C 27.882812 -2.046875 28.414062 -1.4375 29.0625 -1.03125 C 29.707031 -0.625 30.363281 -0.421875 31.03125 -0.421875 Z M 8.796875 -10 L 17.203125 -10 L 13.125 -20.34375 Z M 8.796875 -10 "></path></g></g></g><g fill="#dbbe67" fill-opacity="1"><g transform="translate(162.785573, 36.448072)"><g></g></g></g><g fill="#dbbe67" fill-opacity="1"><g transform="translate(173.294832, 36.448072)"><g><path d="M 2.3125 -0.421875 C 3.039062 -0.421875 3.664062 -0.675781 4.1875 -1.1875 C 4.707031 -1.707031 4.976562 -2.332031 5 -3.0625 L 5 -26.359375 C 4.976562 -27.085938 4.707031 -27.710938 4.1875 -28.234375 C 3.664062 -28.753906 3.039062 -29.015625 2.3125 -29.015625 L 1.765625 -29.015625 L 1.765625 -29.4375 L 14.546875 -29.4375 L 14.5 -29.015625 L 14 -29.015625 C 13.269531 -29.015625 12.640625 -28.753906 12.109375 -28.234375 C 11.578125 -27.710938 11.3125 -27.085938 11.3125 -26.359375 L 11.3125 -1.8125 L 16.8125 -1.8125 C 18.863281 -1.8125 20.582031 -2.398438 21.96875 -3.578125 C 23.351562 -4.753906 24.382812 -6.421875 25.0625 -8.578125 L 25.484375 -8.578125 L 23.546875 0 L 1.765625 0 L 1.765625 -0.421875 Z M 2.3125 -0.421875 "></path></g></g></g><g fill="#dbbe67" fill-opacity="1"><g transform="translate(199.189665, 36.448072)"><g><path d="M 33.21875 -29.015625 L 32.5 -29.015625 C 31.914062 -29.015625 31.410156 -28.820312 30.984375 -28.4375 C 30.566406 -28.0625 30.34375 -27.59375 30.3125 -27.03125 L 30.3125 -10.640625 C 30.3125 -7.191406 29.234375 -4.457031 27.078125 -2.4375 C 24.921875 -0.414062 21.960938 0.59375 18.203125 0.59375 C 13.773438 0.59375 10.382812 -0.394531 8.03125 -2.375 C 5.675781 -4.351562 4.5 -7.09375 4.5 -10.59375 L 4.5 -26.90625 C 4.46875 -27.75 4.085938 -28.367188 3.359375 -28.765625 C 3.023438 -28.929688 2.660156 -29.015625 2.265625 -29.015625 L 1.59375 -29.015625 L 1.59375 -29.4375 L 13.703125 -29.4375 L 13.703125 -29.015625 L 13.03125 -29.015625 C 12.414062 -29.015625 11.894531 -28.820312 11.46875 -28.4375 C 11.050781 -28.0625 10.832031 -27.582031 10.8125 -27 L 10.8125 -10.9375 C 10.8125 -7.957031 11.535156 -5.597656 12.984375 -3.859375 C 14.441406 -2.128906 16.445312 -1.265625 19 -1.265625 C 21.550781 -1.265625 23.566406 -2.082031 25.046875 -3.71875 C 26.535156 -5.363281 27.296875 -7.585938 27.328125 -10.390625 L 27.328125 -27 C 27.273438 -27.8125 26.894531 -28.398438 26.1875 -28.765625 C 25.851562 -28.929688 25.492188 -29.015625 25.109375 -29.015625 L 24.421875 -29.015625 L 24.421875 -29.4375 L 33.21875 -29.4375 Z M 33.21875 -29.015625 "></path></g></g></g><g fill="#dbbe67" fill-opacity="1"><g transform="translate(233.70209, 36.448072)"><g><path d="M 18.046875 -0.421875 C 18.628906 -0.421875 19.101562 -0.703125 19.46875 -1.265625 C 19.632812 -1.566406 19.71875 -1.859375 19.71875 -2.140625 C 19.71875 -2.421875 19.632812 -2.703125 19.46875 -2.984375 L 13.59375 -12.15625 L 7.40625 -3.03125 C 7.238281 -2.75 7.15625 -2.457031 7.15625 -2.15625 C 7.15625 -1.863281 7.238281 -1.578125 7.40625 -1.296875 C 7.800781 -0.710938 8.289062 -0.421875 8.875 -0.421875 L 9.421875 -0.421875 L 9.421875 0 L -0.96875 0 L -0.96875 -0.421875 L -0.375 -0.421875 C 1.195312 -0.421875 2.582031 -1.207031 3.78125 -2.78125 L 12.078125 -14.5 L 4.296875 -26.53125 C 3.816406 -27.226562 3.195312 -27.816406 2.4375 -28.296875 C 1.6875 -28.773438 0.890625 -29.015625 0.046875 -29.015625 L -0.546875 -29.015625 L -0.546875 -29.4375 L 13.75 -29.4375 L 13.75 -29.015625 L 13.203125 -29.015625 C 12.617188 -29.015625 12.144531 -28.734375 11.78125 -28.171875 C 11.613281 -27.859375 11.53125 -27.554688 11.53125 -27.265625 C 11.53125 -26.972656 11.597656 -26.703125 11.734375 -26.453125 L 16.984375 -18.328125 L 22.15625 -26.40625 C 22.332031 -26.6875 22.421875 -26.972656 22.421875 -27.265625 C 22.421875 -27.554688 22.320312 -27.84375 22.125 -28.125 C 21.757812 -28.71875 21.28125 -29.015625 20.6875 -29.015625 L 20.140625 -29.015625 L 20.140625 -29.4375 L 30.484375 -29.4375 L 30.484375 -29.015625 L 29.90625 -29.015625 C 29.0625 -29.015625 28.273438 -28.78125 27.546875 -28.3125 C 26.816406 -27.851562 26.203125 -27.273438 25.703125 -26.578125 L 18.546875 -15.9375 L 27 -2.859375 C 27.476562 -2.160156 28.101562 -1.578125 28.875 -1.109375 C 29.644531 -0.648438 30.4375 -0.421875 31.25 -0.421875 L 31.828125 -0.421875 L 31.828125 0 L 17.5 0 L 17.5 -0.421875 Z M 18.046875 -0.421875 "></path></g></g></g><g fill="#dbbe67" fill-opacity="1"><g transform="translate(264.347115, 36.448072)"><g><path d="M 33.21875 -29.015625 L 32.5 -29.015625 C 31.914062 -29.015625 31.410156 -28.820312 30.984375 -28.4375 C 30.566406 -28.0625 30.34375 -27.59375 30.3125 -27.03125 L 30.3125 -10.640625 C 30.3125 -7.191406 29.234375 -4.457031 27.078125 -2.4375 C 24.921875 -0.414062 21.960938 0.59375 18.203125 0.59375 C 13.773438 0.59375 10.382812 -0.394531 8.03125 -2.375 C 5.675781 -4.351562 4.5 -7.09375 4.5 -10.59375 L 4.5 -26.90625 C 4.46875 -27.75 4.085938 -28.367188 3.359375 -28.765625 C 3.023438 -28.929688 2.660156 -29.015625 2.265625 -29.015625 L 1.59375 -29.015625 L 1.59375 -29.4375 L 13.703125 -29.4375 L 13.703125 -29.015625 L 13.03125 -29.015625 C 12.414062 -29.015625 11.894531 -28.820312 11.46875 -28.4375 C 11.050781 -28.0625 10.832031 -27.582031 10.8125 -27 L 10.8125 -10.9375 C 10.8125 -7.957031 11.535156 -5.597656 12.984375 -3.859375 C 14.441406 -2.128906 16.445312 -1.265625 19 -1.265625 C 21.550781 -1.265625 23.566406 -2.082031 25.046875 -3.71875 C 26.535156 -5.363281 27.296875 -7.585938 27.328125 -10.390625 L 27.328125 -27 C 27.273438 -27.8125 26.894531 -28.398438 26.1875 -28.765625 C 25.851562 -28.929688 25.492188 -29.015625 25.109375 -29.015625 L 24.421875 -29.015625 L 24.421875 -29.4375 L 33.21875 -29.4375 Z M 33.21875 -29.015625 "></path></g></g></g><g fill="#dbbe67" fill-opacity="1"><g transform="translate(298.859539, 36.448072)"><g><path d="M 13.375 -27.578125 L 11.5625 -27.578125 C 11.507812 -27.578125 11.46875 -27.578125 11.4375 -27.578125 L 11.4375 -3.0625 C 11.46875 -2.332031 11.738281 -1.707031 12.25 -1.1875 C 12.769531 -0.675781 13.394531 -0.421875 14.125 -0.421875 L 14.671875 -0.421875 L 14.671875 0 L 1.890625 0 L 1.890625 -0.421875 L 2.4375 -0.421875 C 3.445312 -0.421875 4.21875 -0.851562 4.75 -1.71875 C 4.976562 -2.113281 5.101562 -2.550781 5.125 -3.03125 L 5.125 -26.359375 C 5.101562 -27.085938 4.832031 -27.710938 4.3125 -28.234375 C 3.789062 -28.753906 3.164062 -29.015625 2.4375 -29.015625 L 1.890625 -29.015625 L 1.890625 -29.4375 L 16.3125 -29.4375 C 19.03125 -29.4375 21.328125 -28.847656 23.203125 -27.671875 C 24.160156 -27.078125 24.921875 -26.253906 25.484375 -25.203125 C 26.046875 -24.148438 26.328125 -22.773438 26.328125 -21.078125 C 26.328125 -19.390625 25.738281 -17.757812 24.5625 -16.1875 C 23.382812 -14.613281 21.671875 -13.71875 19.421875 -13.5 C 21.046875 -12.96875 22.476562 -11.734375 23.71875 -9.796875 C 26.738281 -4.941406 28.976562 -2.054688 30.4375 -1.140625 C 31.164062 -0.691406 32.078125 -0.453125 33.171875 -0.421875 L 33.171875 0 L 29.046875 0 C 26.609375 0 24.582031 -0.320312 22.96875 -0.96875 C 21.363281 -1.613281 20.097656 -2.75 19.171875 -4.375 C 18.640625 -5.300781 17.476562 -7.695312 15.6875 -11.5625 C 14.894531 -13.269531 13.941406 -14.207031 12.828125 -14.375 L 12.828125 -14.796875 L 14.125 -14.796875 C 15.382812 -14.796875 16.5 -15.175781 17.46875 -15.9375 C 18.4375 -16.695312 19.085938 -17.929688 19.421875 -19.640625 C 19.535156 -20.222656 19.59375 -20.679688 19.59375 -21.015625 C 19.59375 -23.316406 19.128906 -24.976562 18.203125 -26 C 17.273438 -27.03125 16.082031 -27.554688 14.625 -27.578125 C 14.351562 -27.578125 13.9375 -27.578125 13.375 -27.578125 Z M 13.375 -27.578125 "></path></g></g></g><g fill="#dbbe67" fill-opacity="1"><g transform="translate(330.261211, 36.448072)"><g><path d="M 30.90625 -29.015625 L 30.328125 -29.015625 C 29.484375 -29.015625 28.679688 -28.773438 27.921875 -28.296875 C 27.160156 -27.816406 26.554688 -27.242188 26.109375 -26.578125 L 17.828125 -13.375 L 17.828125 -3.0625 C 17.828125 -2.332031 18.09375 -1.707031 18.625 -1.1875 C 19.164062 -0.675781 19.800781 -0.421875 20.53125 -0.421875 L 21.03125 -0.421875 L 21.0625 0 L 8.28125 0 L 8.28125 -0.421875 L 8.828125 -0.421875 C 9.554688 -0.421875 10.179688 -0.671875 10.703125 -1.171875 C 11.222656 -1.679688 11.5 -2.300781 11.53125 -3.03125 L 11.53125 -13.40625 L 3.5 -26.609375 C 3.070312 -27.285156 2.472656 -27.851562 1.703125 -28.3125 C 0.929688 -28.78125 0.140625 -29.015625 -0.671875 -29.015625 L -1.25 -29.015625 L -1.25 -29.4375 L 12.65625 -29.4375 L 12.65625 -29.015625 L 12.109375 -29.015625 C 11.492188 -29.015625 11.019531 -28.734375 10.6875 -28.171875 C 10.519531 -27.859375 10.4375 -27.554688 10.4375 -27.265625 C 10.4375 -26.972656 10.503906 -26.6875 10.640625 -26.40625 L 16.65625 -15.46875 L 22.921875 -26.40625 C 23.054688 -26.6875 23.125 -26.972656 23.125 -27.265625 C 23.125 -27.554688 23.03125 -27.84375 22.84375 -28.125 C 22.5 -28.71875 22.019531 -29.015625 21.40625 -29.015625 L 20.90625 -29.015625 L 20.90625 -29.4375 L 30.90625 -29.4375 Z M 30.90625 -29.015625 "></path></g></g></g><g fill="#dbbe67" fill-opacity="1"><g transform="translate(40.160095, 55.469685)"><g><path d="M 1.46875 -0.710938 L 1.46875 -6.894531 L 0.761719 -6.894531 L 0.761719 0 L 3.933594 0 L 3.933594 -0.710938 Z M 1.46875 -0.710938 "></path></g></g></g><g fill="#dbbe67" fill-opacity="1"><g transform="translate(50.745846, 55.469685)"><g><path d="M 5.121094 -2.332031 C 5.121094 -2.941406 4.878906 -3.46875 4.410156 -3.925781 C 3.953125 -4.359375 3.40625 -4.582031 2.789062 -4.582031 C 2.140625 -4.582031 1.59375 -4.351562 1.136719 -3.894531 C 0.679688 -3.4375 0.457031 -2.890625 0.457031 -2.25 C 0.457031 -1.601562 0.679688 -1.054688 1.136719 -0.609375 C 1.347656 -0.394531 1.59375 -0.234375 1.875 -0.113281 C 2.160156 0.0117188 2.496094 0.0703125 2.890625 0.0703125 C 3.285156 0.0703125 3.671875 -0.0507812 4.054688 -0.292969 C 4.441406 -0.539062 4.726562 -0.882812 4.917969 -1.308594 L 4.105469 -1.308594 C 3.945312 -1.09375 3.75 -0.933594 3.519531 -0.8125 C 3.285156 -0.691406 3.042969 -0.640625 2.789062 -0.640625 C 2.402344 -0.640625 2.058594 -0.761719 1.753906 -1.015625 C 1.449219 -1.257812 1.257812 -1.570312 1.195312 -1.957031 L 5.121094 -1.957031 Z M 4.371094 -2.566406 L 1.207031 -2.566406 C 1.246094 -2.746094 1.316406 -2.921875 1.417969 -3.082031 C 1.742188 -3.609375 2.199219 -3.875 2.789062 -3.875 C 3.164062 -3.875 3.5 -3.75 3.792969 -3.507812 C 4.097656 -3.253906 4.277344 -2.941406 4.371094 -2.566406 Z M 4.371094 -2.566406 "></path></g></g></g><g fill="#dbbe67" fill-opacity="1"><g transform="translate(62.720717, 55.469685)"><g><path d="M 0.203125 -3.800781 L 1.316406 -3.800781 L 1.316406 0 L 2.027344 0 L 2.027344 -3.800781 L 3.132812 -3.800781 L 3.132812 -4.460938 L 2.027344 -4.460938 L 2.027344 -6.195312 L 1.316406 -6.195312 L 1.316406 -4.460938 L 0.203125 -4.460938 Z M 0.203125 -3.800781 "></path></g></g></g><g fill="#dbbe67" fill-opacity="1"><g transform="translate(72.505431, 55.469685)"><g></g></g></g><g fill="#dbbe67" fill-opacity="1"><g transform="translate(81.691904, 55.469685)"><g><path d="M 3.425781 -3.246094 L 6.03125 -6.894531 L 5.128906 -6.894531 L 3.074219 -3.945312 L 1.015625 -6.894531 L 0.101562 -6.894531 L 2.71875 -3.234375 L 2.71875 0 L 3.425781 0 Z M 3.425781 -3.246094 "></path></g></g></g><g fill="#dbbe67" fill-opacity="1"><g transform="translate(94.275166, 55.469685)"><g><path d="M 4.410156 -2.25 C 4.410156 -1.804688 4.25 -1.429688 3.933594 -1.117188 C 3.609375 -0.789062 3.234375 -0.640625 2.789062 -0.640625 C 2.34375 -0.640625 1.957031 -0.789062 1.644531 -1.117188 C 1.316406 -1.429688 1.167969 -1.804688 1.167969 -2.25 C 1.167969 -2.695312 1.316406 -3.074219 1.644531 -3.398438 C 1.957031 -3.710938 2.34375 -3.875 2.789062 -3.875 C 3.234375 -3.875 3.609375 -3.710938 3.933594 -3.398438 C 4.25 -3.074219 4.410156 -2.695312 4.410156 -2.25 Z M 5.121094 -2.25 C 5.121094 -2.890625 4.886719 -3.4375 4.429688 -3.894531 C 3.976562 -4.351562 3.425781 -4.582031 2.789062 -4.582031 C 2.140625 -4.582031 1.59375 -4.351562 1.136719 -3.894531 C 0.679688 -3.4375 0.457031 -2.890625 0.457031 -2.25 C 0.457031 -1.601562 0.679688 -1.054688 1.136719 -0.609375 C 1.59375 -0.152344 2.148438 0.0703125 2.789062 0.0703125 C 3.417969 0.0703125 3.976562 -0.152344 4.429688 -0.609375 C 4.886719 -1.054688 5.121094 -1.601562 5.121094 -2.25 Z M 5.121094 -2.25 "></path></g></g></g><g fill="#dbbe67" fill-opacity="1"><g transform="translate(106.300749, 55.469685)"><g><path d="M 3.84375 -0.761719 L 3.84375 0 L 4.550781 0 L 4.550781 -4.460938 L 3.84375 -4.460938 L 3.84375 -2.597656 C 3.84375 -1.96875 3.722656 -1.492188 3.488281 -1.136719 C 3.265625 -0.789062 2.871094 -0.617188 2.320312 -0.617188 C 2.019531 -0.617188 1.792969 -0.71875 1.664062 -0.921875 C 1.53125 -1.125 1.46875 -1.378906 1.46875 -1.671875 L 1.46875 -4.460938 L 0.761719 -4.460938 L 0.761719 -1.671875 C 0.761719 -1.15625 0.890625 -0.730469 1.175781 -0.394531 C 1.460938 -0.0703125 1.84375 0.0898438 2.351562 0.0898438 C 3.011719 0.0898438 3.507812 -0.191406 3.84375 -0.761719 Z M 3.84375 -0.761719 "></path></g></g></g><g fill="#dbbe67" fill-opacity="1"><g transform="translate(117.910606, 55.469685)"><g><path d="M 3.050781 -3.539062 L 3.050781 -4.460938 C 2.910156 -4.523438 2.757812 -4.550781 2.605469 -4.550781 C 2.097656 -4.550781 1.734375 -4.269531 1.5 -3.722656 L 1.46875 -3.539062 L 1.46875 -4.460938 L 0.761719 -4.460938 L 0.761719 0 L 1.46875 0 L 1.46875 -2.230469 C 1.46875 -2.597656 1.550781 -2.921875 1.722656 -3.214844 C 1.804688 -3.367188 1.917969 -3.5 2.046875 -3.597656 C 2.179688 -3.699219 2.34375 -3.761719 2.523438 -3.761719 C 2.707031 -3.761719 2.878906 -3.679688 3.050781 -3.539062 Z M 3.050781 -3.539062 "></path></g></g></g><g fill="#dbbe67" fill-opacity="1"><g transform="translate(127.512808, 55.469685)"><g></g></g></g><g fill="#dbbe67" fill-opacity="1"><g transform="translate(136.699284, 55.469685)"><g><path d="M 7.5625 -3.222656 L 3.976562 -3.222656 L 3.976562 -2.605469 L 6.773438 -2.605469 C 6.558594 -2.007812 6.207031 -1.519531 5.699219 -1.167969 C 5.191406 -0.800781 4.625 -0.628906 4.003906 -0.628906 C 3.214844 -0.628906 2.546875 -0.902344 1.988281 -1.460938 C 1.441406 -2.019531 1.167969 -2.695312 1.167969 -3.476562 C 1.167969 -4.257812 1.441406 -4.929688 1.996094 -5.484375 C 2.546875 -6.03125 3.214844 -6.316406 4.003906 -6.316406 C 4.59375 -6.316406 5.128906 -6.144531 5.605469 -5.808594 C 6.09375 -5.476562 6.4375 -5.039062 6.660156 -4.480469 L 7.410156 -4.480469 C 7.179688 -5.242188 6.742188 -5.851562 6.113281 -6.316406 C 5.484375 -6.785156 4.753906 -7.027344 3.933594 -7.027344 C 3.488281 -7.027344 3.050781 -6.925781 2.625 -6.742188 C 2.191406 -6.558594 1.816406 -6.308594 1.492188 -5.980469 C 1.167969 -5.65625 0.914062 -5.28125 0.730469 -4.855469 C 0.546875 -4.421875 0.457031 -3.953125 0.457031 -3.46875 C 0.457031 -2.980469 0.546875 -2.515625 0.730469 -2.089844 C 0.914062 -1.652344 1.167969 -1.277344 1.492188 -0.953125 C 1.816406 -0.628906 2.191406 -0.375 2.625 -0.191406 C 3.050781 -0.0117188 3.519531 0.0820312 4.003906 0.0820312 C 4.835938 0.0820312 5.585938 -0.183594 6.257812 -0.71875 C 6.925781 -1.265625 7.339844 -1.957031 7.492188 -2.796875 Z M 7.5625 -3.222656 "></path></g></g></g><g fill="#dbbe67" fill-opacity="1"><g transform="translate(151.168515, 55.469685)"><g><path d="M 4.410156 -2.25 C 4.410156 -1.804688 4.25 -1.429688 3.933594 -1.117188 C 3.609375 -0.789062 3.234375 -0.640625 2.789062 -0.640625 C 2.34375 -0.640625 1.957031 -0.789062 1.644531 -1.117188 C 1.316406 -1.429688 1.167969 -1.804688 1.167969 -2.25 C 1.167969 -2.695312 1.316406 -3.074219 1.644531 -3.398438 C 1.957031 -3.710938 2.34375 -3.875 2.789062 -3.875 C 3.234375 -3.875 3.609375 -3.710938 3.933594 -3.398438 C 4.25 -3.074219 4.410156 -2.695312 4.410156 -2.25 Z M 5.121094 -2.25 C 5.121094 -2.890625 4.886719 -3.4375 4.429688 -3.894531 C 3.976562 -4.351562 3.425781 -4.582031 2.789062 -4.582031 C 2.140625 -4.582031 1.59375 -4.351562 1.136719 -3.894531 C 0.679688 -3.4375 0.457031 -2.890625 0.457031 -2.25 C 0.457031 -1.601562 0.679688 -1.054688 1.136719 -0.609375 C 1.59375 -0.152344 2.148438 0.0703125 2.789062 0.0703125 C 3.417969 0.0703125 3.976562 -0.152344 4.429688 -0.609375 C 4.886719 -1.054688 5.121094 -1.601562 5.121094 -2.25 Z M 5.121094 -2.25 "></path></g></g></g><g fill="#dbbe67" fill-opacity="1"><g transform="translate(163.194098, 55.469685)"><g><path d="M 3.050781 -3.539062 L 3.050781 -4.460938 C 2.910156 -4.523438 2.757812 -4.550781 2.605469 -4.550781 C 2.097656 -4.550781 1.734375 -4.269531 1.5 -3.722656 L 1.46875 -3.539062 L 1.46875 -4.460938 L 0.761719 -4.460938 L 0.761719 0 L 1.46875 0 L 1.46875 -2.230469 C 1.46875 -2.597656 1.550781 -2.921875 1.722656 -3.214844 C 1.804688 -3.367188 1.917969 -3.5 2.046875 -3.597656 C 2.179688 -3.699219 2.34375 -3.761719 2.523438 -3.761719 C 2.707031 -3.761719 2.878906 -3.679688 3.050781 -3.539062 Z M 3.050781 -3.539062 "></path></g></g></g><g fill="#dbbe67" fill-opacity="1"><g transform="translate(172.7963, 55.469685)"><g><path d="M 4.371094 -2.230469 C 4.371094 -1.792969 4.21875 -1.410156 3.914062 -1.09375 C 3.609375 -0.769531 3.234375 -0.609375 2.796875 -0.609375 C 2.363281 -0.609375 1.988281 -0.769531 1.683594 -1.09375 C 1.378906 -1.410156 1.226562 -1.785156 1.226562 -2.230469 C 1.226562 -2.667969 1.378906 -3.042969 1.683594 -3.367188 C 1.988281 -3.691406 2.363281 -3.851562 2.796875 -3.851562 C 3.234375 -3.851562 3.609375 -3.691406 3.914062 -3.367188 C 4.21875 -3.042969 4.371094 -2.65625 4.371094 -2.230469 Z M 1.207031 0.609375 L 0.476562 0.609375 C 0.558594 1.085938 0.769531 1.5 1.136719 1.855469 C 1.582031 2.3125 2.128906 2.535156 2.769531 2.535156 C 3.398438 2.535156 3.945312 2.3125 4.402344 1.855469 C 4.847656 1.410156 5.078125 0.863281 5.078125 0.222656 L 5.078125 -4.460938 L 4.371094 -4.460938 L 4.371094 -3.710938 C 4.328125 -3.75 4.289062 -3.800781 4.25 -3.851562 C 3.800781 -4.320312 3.285156 -4.5625 2.695312 -4.5625 C 2.070312 -4.5625 1.550781 -4.320312 1.125 -3.851562 C 0.71875 -3.386719 0.515625 -2.847656 0.515625 -2.230469 C 0.515625 -1.601562 0.71875 -1.066406 1.125 -0.609375 C 1.550781 -0.132812 2.070312 0.101562 2.695312 0.101562 C 3.304688 0.101562 3.824219 -0.132812 4.25 -0.609375 C 4.289062 -0.648438 4.328125 -0.699219 4.371094 -0.738281 L 4.371094 0.222656 C 4.371094 0.667969 4.207031 1.042969 3.894531 1.359375 C 3.578125 1.671875 3.203125 1.824219 2.769531 1.824219 C 2.320312 1.824219 1.945312 1.671875 1.632812 1.359375 C 1.410156 1.136719 1.265625 0.890625 1.207031 0.609375 Z M 1.207031 0.609375 "></path></g></g></g><g fill="#dbbe67" fill-opacity="1"><g transform="translate(185.085509, 55.469685)"><g><path d="M 5.121094 -2.332031 C 5.121094 -2.941406 4.878906 -3.46875 4.410156 -3.925781 C 3.953125 -4.359375 3.40625 -4.582031 2.789062 -4.582031 C 2.140625 -4.582031 1.59375 -4.351562 1.136719 -3.894531 C 0.679688 -3.4375 0.457031 -2.890625 0.457031 -2.25 C 0.457031 -1.601562 0.679688 -1.054688 1.136719 -0.609375 C 1.347656 -0.394531 1.59375 -0.234375 1.875 -0.113281 C 2.160156 0.0117188 2.496094 0.0703125 2.890625 0.0703125 C 3.285156 0.0703125 3.671875 -0.0507812 4.054688 -0.292969 C 4.441406 -0.539062 4.726562 -0.882812 4.917969 -1.308594 L 4.105469 -1.308594 C 3.945312 -1.09375 3.75 -0.933594 3.519531 -0.8125 C 3.285156 -0.691406 3.042969 -0.640625 2.789062 -0.640625 C 2.402344 -0.640625 2.058594 -0.761719 1.753906 -1.015625 C 1.449219 -1.257812 1.257812 -1.570312 1.195312 -1.957031 L 5.121094 -1.957031 Z M 4.371094 -2.566406 L 1.207031 -2.566406 C 1.246094 -2.746094 1.316406 -2.921875 1.417969 -3.082031 C 1.742188 -3.609375 2.199219 -3.875 2.789062 -3.875 C 3.164062 -3.875 3.5 -3.75 3.792969 -3.507812 C 4.097656 -3.253906 4.277344 -2.941406 4.371094 -2.566406 Z M 4.371094 -2.566406 "></path></g></g></g><g fill="#dbbe67" fill-opacity="1"><g transform="translate(197.060383, 55.469685)"><g><path d="M 4.410156 -2.25 C 4.410156 -1.804688 4.25 -1.429688 3.933594 -1.117188 C 3.609375 -0.789062 3.234375 -0.640625 2.789062 -0.640625 C 2.34375 -0.640625 1.957031 -0.789062 1.644531 -1.117188 C 1.316406 -1.429688 1.167969 -1.804688 1.167969 -2.25 C 1.167969 -2.695312 1.316406 -3.074219 1.644531 -3.398438 C 1.957031 -3.710938 2.34375 -3.875 2.789062 -3.875 C 3.234375 -3.875 3.609375 -3.710938 3.933594 -3.398438 C 4.25 -3.074219 4.410156 -2.695312 4.410156 -2.25 Z M 5.121094 -2.25 C 5.121094 -2.890625 4.886719 -3.4375 4.429688 -3.894531 C 3.976562 -4.351562 3.425781 -4.582031 2.789062 -4.582031 C 2.140625 -4.582031 1.59375 -4.351562 1.136719 -3.894531 C 0.679688 -3.4375 0.457031 -2.890625 0.457031 -2.25 C 0.457031 -1.601562 0.679688 -1.054688 1.136719 -0.609375 C 1.59375 -0.152344 2.148438 0.0703125 2.789062 0.0703125 C 3.417969 0.0703125 3.976562 -0.152344 4.429688 -0.609375 C 4.886719 -1.054688 5.121094 -1.601562 5.121094 -2.25 Z M 5.121094 -2.25 "></path></g></g></g><g fill="#dbbe67" fill-opacity="1"><g transform="translate(209.085966, 55.469685)"><g><path d="M 3.84375 -0.761719 L 3.84375 0 L 4.550781 0 L 4.550781 -4.460938 L 3.84375 -4.460938 L 3.84375 -2.597656 C 3.84375 -1.96875 3.722656 -1.492188 3.488281 -1.136719 C 3.265625 -0.789062 2.871094 -0.617188 2.320312 -0.617188 C 2.019531 -0.617188 1.792969 -0.71875 1.664062 -0.921875 C 1.53125 -1.125 1.46875 -1.378906 1.46875 -1.671875 L 1.46875 -4.460938 L 0.761719 -4.460938 L 0.761719 -1.671875 C 0.761719 -1.15625 0.890625 -0.730469 1.175781 -0.394531 C 1.460938 -0.0703125 1.84375 0.0898438 2.351562 0.0898438 C 3.011719 0.0898438 3.507812 -0.191406 3.84375 -0.761719 Z M 3.84375 -0.761719 "></path></g></g></g><g fill="#dbbe67" fill-opacity="1"><g transform="translate(220.695823, 55.469685)"><g><path d="M 1.398438 -0.628906 C 1.226562 -0.75 1.09375 -0.953125 1.023438 -1.246094 L 0.273438 -1.246094 C 0.425781 -0.324219 1.015625 0.132812 2.046875 0.132812 C 2.292969 0.132812 2.515625 0.113281 2.726562 0.0507812 C 2.941406 -0.0117188 3.121094 -0.0898438 3.296875 -0.203125 C 3.640625 -0.4375 3.8125 -0.789062 3.8125 -1.265625 C 3.8125 -1.753906 3.589844 -2.097656 3.121094 -2.320312 C 2.929688 -2.414062 2.71875 -2.484375 2.484375 -2.535156 C 2.261719 -2.585938 2.046875 -2.644531 1.855469 -2.707031 C 1.652344 -2.769531 1.492188 -2.847656 1.359375 -2.941406 C 1.226562 -3.03125 1.15625 -3.171875 1.15625 -3.375 C 1.15625 -3.578125 1.238281 -3.730469 1.398438 -3.824219 C 1.5625 -3.925781 1.753906 -3.976562 1.96875 -3.976562 C 2.191406 -3.976562 2.382812 -3.925781 2.535156 -3.84375 C 2.6875 -3.761719 2.808594 -3.597656 2.878906 -3.355469 L 3.640625 -3.355469 C 3.550781 -3.800781 3.355469 -4.117188 3.074219 -4.289062 C 2.777344 -4.472656 2.421875 -4.5625 1.988281 -4.5625 C 1.5625 -4.5625 1.1875 -4.441406 0.871094 -4.21875 C 0.566406 -3.984375 0.40625 -3.648438 0.40625 -3.203125 C 0.40625 -2.992188 0.464844 -2.796875 0.578125 -2.636719 C 0.699219 -2.464844 0.871094 -2.332031 1.09375 -2.230469 C 1.296875 -2.140625 1.511719 -2.070312 1.734375 -2.007812 C 1.957031 -1.957031 2.167969 -1.894531 2.371094 -1.835938 C 2.828125 -1.683594 3.0625 -1.460938 3.0625 -1.175781 C 3.0625 -0.691406 2.738281 -0.457031 2.089844 -0.457031 C 1.816406 -0.457031 1.582031 -0.507812 1.398438 -0.628906 Z M 1.398438 -0.628906 "></path></g></g></g><g fill="#dbbe67" fill-opacity="1"><g transform="translate(231.220735, 55.469685)"><g><path d="M 3.84375 0 L 4.550781 0 L 4.550781 -2.789062 C 4.550781 -3.304688 4.410156 -3.722656 4.148438 -4.035156 C 4.003906 -4.199219 3.84375 -4.320312 3.648438 -4.410156 C 3.449219 -4.503906 3.195312 -4.550781 2.878906 -4.550781 C 2.554688 -4.550781 2.28125 -4.460938 2.039062 -4.300781 C 1.804688 -4.148438 1.613281 -3.945312 1.46875 -3.691406 L 1.46875 -4.460938 L 0.761719 -4.460938 L 0.761719 0 L 1.46875 0 L 1.46875 -1.867188 C 1.46875 -2.433594 1.570312 -2.878906 1.785156 -3.214844 C 1.90625 -3.398438 2.058594 -3.550781 2.25 -3.671875 C 2.433594 -3.78125 2.6875 -3.84375 2.992188 -3.84375 C 3.296875 -3.84375 3.507812 -3.730469 3.640625 -3.527344 C 3.773438 -3.324219 3.84375 -3.074219 3.84375 -2.789062 Z M 3.84375 0 "></path></g></g></g><g fill="#dbbe67" fill-opacity="1"><g transform="translate(242.830592, 55.469685)"><g><path d="M 5.121094 -2.332031 C 5.121094 -2.941406 4.878906 -3.46875 4.410156 -3.925781 C 3.953125 -4.359375 3.40625 -4.582031 2.789062 -4.582031 C 2.140625 -4.582031 1.59375 -4.351562 1.136719 -3.894531 C 0.679688 -3.4375 0.457031 -2.890625 0.457031 -2.25 C 0.457031 -1.601562 0.679688 -1.054688 1.136719 -0.609375 C 1.347656 -0.394531 1.59375 -0.234375 1.875 -0.113281 C 2.160156 0.0117188 2.496094 0.0703125 2.890625 0.0703125 C 3.285156 0.0703125 3.671875 -0.0507812 4.054688 -0.292969 C 4.441406 -0.539062 4.726562 -0.882812 4.917969 -1.308594 L 4.105469 -1.308594 C 3.945312 -1.09375 3.75 -0.933594 3.519531 -0.8125 C 3.285156 -0.691406 3.042969 -0.640625 2.789062 -0.640625 C 2.402344 -0.640625 2.058594 -0.761719 1.753906 -1.015625 C 1.449219 -1.257812 1.257812 -1.570312 1.195312 -1.957031 L 5.121094 -1.957031 Z M 4.371094 -2.566406 L 1.207031 -2.566406 C 1.246094 -2.746094 1.316406 -2.921875 1.417969 -3.082031 C 1.742188 -3.609375 2.199219 -3.875 2.789062 -3.875 C 3.164062 -3.875 3.5 -3.75 3.792969 -3.507812 C 4.097656 -3.253906 4.277344 -2.941406 4.371094 -2.566406 Z M 4.371094 -2.566406 "></path></g></g></g><g fill="#dbbe67" fill-opacity="1"><g transform="translate(254.805466, 55.469685)"><g><path d="M 1.398438 -0.628906 C 1.226562 -0.75 1.09375 -0.953125 1.023438 -1.246094 L 0.273438 -1.246094 C 0.425781 -0.324219 1.015625 0.132812 2.046875 0.132812 C 2.292969 0.132812 2.515625 0.113281 2.726562 0.0507812 C 2.941406 -0.0117188 3.121094 -0.0898438 3.296875 -0.203125 C 3.640625 -0.4375 3.8125 -0.789062 3.8125 -1.265625 C 3.8125 -1.753906 3.589844 -2.097656 3.121094 -2.320312 C 2.929688 -2.414062 2.71875 -2.484375 2.484375 -2.535156 C 2.261719 -2.585938 2.046875 -2.644531 1.855469 -2.707031 C 1.652344 -2.769531 1.492188 -2.847656 1.359375 -2.941406 C 1.226562 -3.03125 1.15625 -3.171875 1.15625 -3.375 C 1.15625 -3.578125 1.238281 -3.730469 1.398438 -3.824219 C 1.5625 -3.925781 1.753906 -3.976562 1.96875 -3.976562 C 2.191406 -3.976562 2.382812 -3.925781 2.535156 -3.84375 C 2.6875 -3.761719 2.808594 -3.597656 2.878906 -3.355469 L 3.640625 -3.355469 C 3.550781 -3.800781 3.355469 -4.117188 3.074219 -4.289062 C 2.777344 -4.472656 2.421875 -4.5625 1.988281 -4.5625 C 1.5625 -4.5625 1.1875 -4.441406 0.871094 -4.21875 C 0.566406 -3.984375 0.40625 -3.648438 0.40625 -3.203125 C 0.40625 -2.992188 0.464844 -2.796875 0.578125 -2.636719 C 0.699219 -2.464844 0.871094 -2.332031 1.09375 -2.230469 C 1.296875 -2.140625 1.511719 -2.070312 1.734375 -2.007812 C 1.957031 -1.957031 2.167969 -1.894531 2.371094 -1.835938 C 2.828125 -1.683594 3.0625 -1.460938 3.0625 -1.175781 C 3.0625 -0.691406 2.738281 -0.457031 2.089844 -0.457031 C 1.816406 -0.457031 1.582031 -0.507812 1.398438 -0.628906 Z M 1.398438 -0.628906 "></path></g></g></g><g fill="#dbbe67" fill-opacity="1"><g transform="translate(265.330365, 55.469685)"><g><path d="M 1.398438 -0.628906 C 1.226562 -0.75 1.09375 -0.953125 1.023438 -1.246094 L 0.273438 -1.246094 C 0.425781 -0.324219 1.015625 0.132812 2.046875 0.132812 C 2.292969 0.132812 2.515625 0.113281 2.726562 0.0507812 C 2.941406 -0.0117188 3.121094 -0.0898438 3.296875 -0.203125 C 3.640625 -0.4375 3.8125 -0.789062 3.8125 -1.265625 C 3.8125 -1.753906 3.589844 -2.097656 3.121094 -2.320312 C 2.929688 -2.414062 2.71875 -2.484375 2.484375 -2.535156 C 2.261719 -2.585938 2.046875 -2.644531 1.855469 -2.707031 C 1.652344 -2.769531 1.492188 -2.847656 1.359375 -2.941406 C 1.226562 -3.03125 1.15625 -3.171875 1.15625 -3.375 C 1.15625 -3.578125 1.238281 -3.730469 1.398438 -3.824219 C 1.5625 -3.925781 1.753906 -3.976562 1.96875 -3.976562 C 2.191406 -3.976562 2.382812 -3.925781 2.535156 -3.84375 C 2.6875 -3.761719 2.808594 -3.597656 2.878906 -3.355469 L 3.640625 -3.355469 C 3.550781 -3.800781 3.355469 -4.117188 3.074219 -4.289062 C 2.777344 -4.472656 2.421875 -4.5625 1.988281 -4.5625 C 1.5625 -4.5625 1.1875 -4.441406 0.871094 -4.21875 C 0.566406 -3.984375 0.40625 -3.648438 0.40625 -3.203125 C 0.40625 -2.992188 0.464844 -2.796875 0.578125 -2.636719 C 0.699219 -2.464844 0.871094 -2.332031 1.09375 -2.230469 C 1.296875 -2.140625 1.511719 -2.070312 1.734375 -2.007812 C 1.957031 -1.957031 2.167969 -1.894531 2.371094 -1.835938 C 2.828125 -1.683594 3.0625 -1.460938 3.0625 -1.175781 C 3.0625 -0.691406 2.738281 -0.457031 2.089844 -0.457031 C 1.816406 -0.457031 1.582031 -0.507812 1.398438 -0.628906 Z M 1.398438 -0.628906 "></path></g></g></g><g fill="#dbbe67" fill-opacity="1"><g transform="translate(275.855265, 55.469685)"><g></g></g></g><g fill="#dbbe67" fill-opacity="1"><g transform="translate(285.041727, 55.469685)"><g><path d="M 2.667969 -3.246094 C 3.558594 -3.03125 4.167969 -2.796875 4.492188 -2.535156 C 4.714844 -2.351562 4.828125 -2.121094 4.828125 -1.835938 C 4.828125 -1.550781 4.765625 -1.316406 4.644531 -1.15625 C 4.339844 -0.730469 3.792969 -0.515625 3.023438 -0.515625 C 1.945312 -0.515625 1.339844 -0.882812 1.207031 -1.613281 L 0.375 -1.613281 C 0.617188 -0.445312 1.5 0.132812 3.023438 0.132812 C 3.699219 0.132812 4.269531 -0.0117188 4.726562 -0.3125 C 5.273438 -0.667969 5.554688 -1.195312 5.554688 -1.886719 C 5.554688 -2.453125 5.332031 -2.890625 4.886719 -3.195312 C 4.574219 -3.417969 4.066406 -3.621094 3.367188 -3.800781 C 2.65625 -3.984375 2.199219 -4.136719 1.988281 -4.25 C 1.519531 -4.480469 1.289062 -4.804688 1.296875 -5.230469 C 1.296875 -5.457031 1.339844 -5.648438 1.441406 -5.789062 C 1.703125 -6.183594 2.167969 -6.386719 2.839844 -6.386719 C 3.78125 -6.386719 4.320312 -6.082031 4.460938 -5.496094 L 5.230469 -5.496094 C 4.980469 -6.488281 4.175781 -6.996094 2.839844 -6.996094 C 2.230469 -6.996094 1.691406 -6.835938 1.246094 -6.507812 C 0.789062 -6.183594 0.558594 -5.707031 0.558594 -5.058594 C 0.558594 -4.175781 1.265625 -3.570312 2.667969 -3.246094 Z M 2.667969 -3.246094 "></path></g></g></g><g fill="#dbbe67" fill-opacity="1"><g transform="translate(297.310655, 55.469685)"><g><path d="M 1.46875 0 L 1.46875 -1.867188 C 1.46875 -2.484375 1.570312 -2.949219 1.785156 -3.273438 C 1.90625 -3.457031 2.058594 -3.589844 2.25 -3.691406 C 2.433594 -3.792969 2.6875 -3.84375 2.992188 -3.84375 C 3.296875 -3.84375 3.507812 -3.730469 3.640625 -3.527344 C 3.773438 -3.324219 3.84375 -3.074219 3.84375 -2.789062 L 3.84375 0 L 4.550781 0 L 4.550781 -2.789062 C 4.550781 -3.304688 4.410156 -3.722656 4.148438 -4.035156 C 4.003906 -4.199219 3.84375 -4.320312 3.648438 -4.410156 C 3.449219 -4.503906 3.195312 -4.550781 2.878906 -4.550781 C 2.554688 -4.550781 2.28125 -4.460938 2.039062 -4.300781 C 1.804688 -4.148438 1.613281 -3.945312 1.46875 -3.691406 L 1.46875 -7.605469 L 0.761719 -7.605469 L 0.761719 0 Z M 1.46875 0 "></path></g></g></g><g fill="#dbbe67" fill-opacity="1"><g transform="translate(308.920512, 55.469685)"><g><path d="M 1.480469 -6.003906 C 1.390625 -6.082031 1.277344 -6.132812 1.15625 -6.132812 C 1.035156 -6.132812 0.921875 -6.082031 0.839844 -6.003906 C 0.75 -5.910156 0.710938 -5.800781 0.710938 -5.679688 C 0.710938 -5.554688 0.75 -5.445312 0.839844 -5.363281 C 0.921875 -5.273438 1.035156 -5.230469 1.15625 -5.230469 C 1.277344 -5.230469 1.390625 -5.273438 1.480469 -5.363281 C 1.5625 -5.445312 1.613281 -5.554688 1.613281 -5.679688 C 1.613281 -5.800781 1.5625 -5.910156 1.480469 -6.003906 Z M 1.519531 0 L 1.519531 -4.460938 L 0.8125 -4.460938 L 0.8125 0 Z M 1.519531 0 "></path></g></g></g><g fill="#dbbe67" fill-opacity="1"><g transform="translate(317.691248, 55.469685)"><g><path d="M 3.84375 0 L 4.550781 0 L 4.550781 -2.789062 C 4.550781 -3.304688 4.410156 -3.722656 4.148438 -4.035156 C 4.003906 -4.199219 3.84375 -4.320312 3.648438 -4.410156 C 3.449219 -4.503906 3.195312 -4.550781 2.878906 -4.550781 C 2.554688 -4.550781 2.28125 -4.460938 2.039062 -4.300781 C 1.804688 -4.148438 1.613281 -3.945312 1.46875 -3.691406 L 1.46875 -4.460938 L 0.761719 -4.460938 L 0.761719 0 L 1.46875 0 L 1.46875 -1.867188 C 1.46875 -2.433594 1.570312 -2.878906 1.785156 -3.214844 C 1.90625 -3.398438 2.058594 -3.550781 2.25 -3.671875 C 2.433594 -3.78125 2.6875 -3.84375 2.992188 -3.84375 C 3.296875 -3.84375 3.507812 -3.730469 3.640625 -3.527344 C 3.773438 -3.324219 3.84375 -3.074219 3.84375 -2.789062 Z M 3.84375 0 "></path></g></g></g><g fill="#dbbe67" fill-opacity="1"><g transform="translate(329.301105, 55.469685)"><g><path d="M 5.121094 -2.332031 C 5.121094 -2.941406 4.878906 -3.46875 4.410156 -3.925781 C 3.953125 -4.359375 3.40625 -4.582031 2.789062 -4.582031 C 2.140625 -4.582031 1.59375 -4.351562 1.136719 -3.894531 C 0.679688 -3.4375 0.457031 -2.890625 0.457031 -2.25 C 0.457031 -1.601562 0.679688 -1.054688 1.136719 -0.609375 C 1.347656 -0.394531 1.59375 -0.234375 1.875 -0.113281 C 2.160156 0.0117188 2.496094 0.0703125 2.890625 0.0703125 C 3.285156 0.0703125 3.671875 -0.0507812 4.054688 -0.292969 C 4.441406 -0.539062 4.726562 -0.882812 4.917969 -1.308594 L 4.105469 -1.308594 C 3.945312 -1.09375 3.75 -0.933594 3.519531 -0.8125 C 3.285156 -0.691406 3.042969 -0.640625 2.789062 -0.640625 C 2.402344 -0.640625 2.058594 -0.761719 1.753906 -1.015625 C 1.449219 -1.257812 1.257812 -1.570312 1.195312 -1.957031 L 5.121094 -1.957031 Z M 4.371094 -2.566406 L 1.207031 -2.566406 C 1.246094 -2.746094 1.316406 -2.921875 1.417969 -3.082031 C 1.742188 -3.609375 2.199219 -3.875 2.789062 -3.875 C 3.164062 -3.875 3.5 -3.75 3.792969 -3.507812 C 4.097656 -3.253906 4.277344 -2.941406 4.371094 -2.566406 Z M 4.371094 -2.566406 "></path></g></g></g></svg> 